<svg width="452" height="452" viewBox="0 0 452 452" fill="none" xmlns="http://www.w3.org/2000/svg">
<path d="M452 345.689H0V345.915H452V345.689Z" fill="#EBEBEB"/>
<path d="M77.3643 354.296H47.4238V354.522H77.3643V354.296Z" fill="#EBEBEB"/>
<path d="M162.566 351.846H138.71V352.072H162.566V351.846Z" fill="#EBEBEB"/>
<path d="M122.844 359.629H81.3328V359.855H122.844V359.629Z" fill="#EBEBEB"/>
<path d="M406.71 361.175H387.183V361.401H406.71V361.175Z" fill="#EBEBEB"/>
<path d="M382.79 361.175H353.889V361.401H382.79V361.175Z" fill="#EBEBEB"/>
<path d="M300.426 357.36H250.598V357.586H300.426V357.36Z" fill="#EBEBEB"/>
<path d="M214.248 305.371H39.6945C38.3271 305.369 37.0165 304.824 36.0504 303.856C35.0843 302.888 34.5417 301.577 34.5417 300.209V54.8366C34.5537 53.477 35.1015 52.177 36.0663 51.219C37.0311 50.261 38.3349 49.7223 39.6945 49.72H214.248C215.617 49.72 216.93 50.2638 217.898 51.2318C218.866 52.1999 219.41 53.5128 219.41 54.8818V300.209C219.41 301.578 218.866 302.891 217.898 303.859C216.93 304.827 215.617 305.371 214.248 305.371ZM39.6945 49.9008C38.387 49.9032 37.1339 50.4242 36.2102 51.3496C35.2865 52.275 34.7677 53.5291 34.7677 54.8366V300.209C34.7677 301.517 35.2865 302.771 36.2102 303.696C37.1339 304.622 38.387 305.143 39.6945 305.145H214.248C215.556 305.143 216.81 304.622 217.735 303.697C218.661 302.772 219.181 301.518 219.184 300.209V54.8366C219.181 53.5283 218.661 52.2742 217.735 51.3491C216.81 50.424 215.556 49.9032 214.248 49.9008H39.6945Z" fill="#EBEBEB"/>
<path d="M409.792 305.371H235.23C233.862 305.369 232.55 304.824 231.583 303.857C230.615 302.889 230.071 301.578 230.068 300.209V54.8366C230.082 53.4762 230.632 52.1762 231.598 51.2184C232.565 50.2607 233.869 49.7223 235.23 49.72H409.792C411.15 49.7247 412.452 50.2644 413.415 51.2222C414.378 52.1799 414.924 53.4786 414.936 54.8366V300.209C414.936 301.575 414.395 302.885 413.431 303.853C412.467 304.82 411.158 305.366 409.792 305.371ZM235.23 49.9008C233.922 49.9032 232.668 50.424 231.742 51.3491C230.817 52.2742 230.297 53.5283 230.294 54.8366V300.209C230.297 301.518 230.817 302.772 231.742 303.697C232.668 304.622 233.922 305.143 235.23 305.145H409.792C411.101 305.143 412.355 304.622 413.28 303.697C414.205 302.772 414.726 301.518 414.728 300.209V54.8366C414.726 53.5283 414.205 52.2742 413.28 51.3491C412.355 50.424 411.101 49.9032 409.792 49.9008H235.23Z" fill="#EBEBEB"/>
<path d="M77.9611 201.583L373.244 201.583V73.4953L77.9611 73.4953V201.583Z" fill="#E6E6E6"/>
<path d="M73.893 201.583L371.472 201.583V73.4953L73.893 73.4953V201.583Z" fill="#F5F5F5"/>
<path d="M364.167 194.197V80.8809L81.1884 80.8809V194.197H364.167Z" fill="#FAFAFA"/>
<path d="M201.511 194.197L169.238 80.8899H146.719L178.992 194.197H201.511Z" fill="white"/>
<path d="M172.601 194.197L140.337 80.8899H124.824L157.097 194.197H172.601Z" fill="white"/>
<path d="M336.993 194.197L304.729 80.8899H282.202L314.474 194.197H336.993Z" fill="white"/>
<path d="M308.092 194.197L275.82 80.8899H260.316L292.58 194.197H308.092Z" fill="white"/>
<path d="M143.745 194.197V80.8809H135.031V194.197H143.745Z" fill="#E6E6E6"/>
<path d="M316.165 194.206V80.8899H307.45V194.206H316.165Z" fill="#E6E6E6"/>
<path d="M142.172 198.889V75.3936H131.161V198.889H142.172Z" fill="#F5F5F5"/>
<path d="M314.601 198.889V75.3936H303.59V198.889H314.601Z" fill="#F5F5F5"/>
<path d="M81.9656 194.206V80.8899H81.1881V194.206H81.9656Z" fill="#E6E6E6"/>
<path d="M70.8193 64.0032H381.181C381.42 64.0032 381.65 64.0984 381.82 64.2679C381.989 64.4375 382.085 64.6674 382.085 64.9072C382.085 65.1469 381.989 65.3769 381.82 65.5464C381.65 65.7159 381.42 65.8112 381.181 65.8112H70.8193C70.5795 65.8112 70.3496 65.7159 70.1801 65.5464C70.0105 65.3769 69.9153 65.1469 69.9153 64.9072C69.9153 64.6674 70.0105 64.4375 70.1801 64.2679C70.3496 64.0984 70.5795 64.0032 70.8193 64.0032Z" fill="#E6E6E6"/>
<path d="M373.234 70.2137C373.571 70.2137 373.894 70.0806 374.132 69.8435C374.371 69.6064 374.507 69.2845 374.509 68.9481V66.2361C374.509 65.898 374.375 65.5738 374.136 65.3348C373.897 65.0957 373.572 64.9614 373.234 64.9614C372.898 64.9638 372.576 65.0992 372.339 65.3379C372.102 65.5767 371.969 65.8996 371.969 66.2361V68.9481C371.969 69.2837 372.102 69.6056 372.339 69.843C372.577 70.0803 372.899 70.2137 373.234 70.2137Z" fill="#E6E6E6"/>
<path d="M85.0212 70.2137C85.3577 70.2137 85.6806 70.0806 85.9193 69.8435C86.1581 69.6064 86.2935 69.2845 86.2959 68.9481V66.2361C86.2959 65.898 86.1616 65.5738 85.9225 65.3348C85.6835 65.0957 85.3593 64.9614 85.0212 64.9614C84.6847 64.9638 84.3628 65.0992 84.1257 65.3379C83.8887 65.5767 83.7556 65.8996 83.7556 66.2361V68.9481C83.7556 69.2837 83.889 69.6056 84.1263 69.843C84.3636 70.0803 84.6856 70.2137 85.0212 70.2137Z" fill="#E6E6E6"/>
<path opacity="0.6" d="M71.1176 96.9812L368.57 96.9812V64.9434L71.1176 64.9434V96.9812Z" fill="#E0E0E0"/>
<path d="M176.063 299.857C179.272 298.772 181.596 295.68 179.562 292.507C176.19 287.264 184.624 286.179 182.274 277.383C178.938 264.999 168.569 275.729 166.002 263.823C164.13 255.172 149.603 249.504 149.033 260.894C148.41 273.361 142.163 265.216 140.771 279.083C139.813 288.665 153.427 290.057 149.386 293.059C146.412 295.246 144.649 299.061 148.798 301.674C154.457 305.227 149.115 308.002 152.966 310.479C156.817 312.956 157.432 309.005 163.398 310.931C168.732 312.648 173.252 307.378 172.194 304.078C171.172 301.032 172.845 300.951 176.063 299.857Z" fill="#E6E6E6"/>
<path d="M145.228 305.552C145.228 305.552 145.661 345.69 162.485 345.69C179.308 345.69 179.742 305.552 179.742 305.552H145.228Z" fill="#F0F0F0"/>
<path d="M129.218 299.857C132.418 298.772 134.75 295.68 132.707 292.507C129.335 287.264 137.779 286.179 135.419 277.383C132.074 264.999 121.706 275.729 119.147 263.823C117.276 255.172 102.749 249.504 102.179 260.894C101.555 273.361 95.3088 265.216 93.9166 279.083C92.9584 288.665 106.573 290.057 102.532 293.059C99.5576 295.246 97.7948 299.061 101.953 301.674C107.603 305.227 102.27 308.002 106.112 310.479C109.954 312.956 110.577 309.005 116.544 310.931C121.886 312.648 126.406 307.378 125.34 304.078C124.318 301.032 125.991 300.951 129.218 299.857Z" fill="#E6E6E6"/>
<path d="M98.3733 305.552C98.3733 305.552 98.8163 345.69 115.631 345.69C132.445 345.69 132.888 305.552 132.888 305.552H98.3733Z" fill="#F0F0F0"/>
<path d="M276.308 261.148C278.73 234.326 280.421 190.789 279.11 176.226C279.089 175.98 279.019 175.74 278.902 175.523C278.785 175.305 278.626 175.114 278.432 174.96C278.172 174.755 277.857 174.632 277.528 174.605C277.198 174.579 276.867 174.65 276.578 174.81C276.288 174.97 276.052 175.212 275.9 175.506C275.747 175.8 275.685 176.132 275.72 176.461C275.955 183.693 276.217 201.71 274.816 232.825C274.102 248.311 273.071 258.915 273.776 261.148H276.308Z" fill="#F0F0F0"/>
<path d="M283.775 205.606C289.578 198.374 301.421 193.167 313.489 193.194C318.226 193.194 299.07 201.646 291.106 210.966C284.923 218.198 277.944 230.384 275.575 237.137C277.103 222.917 277.98 212.874 283.775 205.606Z" fill="#F0F0F0"/>
<path d="M271.652 205.533C265.921 197.542 252.668 191.395 238.34 190.699C232.708 190.428 254.123 200.453 262.106 210.731C268.316 218.714 274.68 231.948 276.425 239.198C276.85 224.192 277.392 213.525 271.652 205.533Z" fill="#F0F0F0"/>
<path d="M283.775 217.276C289.578 210.044 301.421 204.837 313.489 204.864C318.226 204.864 299.07 213.317 291.106 222.637C284.923 229.869 277.944 242.055 275.575 248.853C277.103 234.588 277.98 224.544 283.775 217.276Z" fill="#F0F0F0"/>
<path d="M271.652 217.864C265.921 209.873 252.668 203.725 238.34 203.029C232.708 202.758 254.123 212.783 262.106 223.062C268.316 231.053 274.68 244.279 276.425 251.529C276.85 236.468 277.392 225.846 271.652 217.864Z" fill="#F0F0F0"/>
<path d="M282.735 178.151C286.532 172.727 294.659 168.533 303.147 167.963C306.483 167.737 293.339 174.617 288.096 181.523C284.019 186.947 279.58 195.824 278.152 200.697C278.703 190.654 278.929 183.512 282.735 178.151Z" fill="#F0F0F0"/>
<path d="M275.178 180.429C271.137 174.797 261.798 170.485 251.674 169.979C247.705 169.789 262.793 176.859 268.425 184.1C272.8 189.722 277.284 199.052 278.513 204.159C278.839 193.555 279.228 186.061 275.178 180.429Z" fill="#F0F0F0"/>
<path d="M284.037 185.157C288.945 179.001 298.971 174.626 309.195 174.644C313.209 174.644 296.991 181.804 290.211 189.695C284.968 195.825 279.065 206.139 277.049 211.862C278.432 199.784 279.128 191.305 284.037 185.157Z" fill="#F0F0F0"/>
<path d="M274.066 188.43C269.202 181.704 257.984 176.461 245.888 175.873C241.124 175.638 259.249 184.136 266.011 192.832C271.2 199.594 276.624 210.795 278.107 216.96C278.432 204.195 278.92 195.201 274.066 188.43Z" fill="#F0F0F0"/>
<path d="M284.362 193.691C289.66 187.056 300.481 182.328 311.482 182.355C315.812 182.355 298.32 190.075 291.043 198.627C285.393 205.244 279.02 216.363 276.85 222.538C278.269 209.511 279.065 200.326 284.362 193.691Z" fill="#F0F0F0"/>
<path d="M273.297 197.325C267.873 189.813 255.452 184.036 241.974 183.385C236.685 183.123 256.808 192.552 264.32 202.216C270.16 209.728 276.145 222.167 277.79 228.983C278.179 214.827 278.694 204.846 273.297 197.325Z" fill="#F0F0F0"/>
<path d="M260 256.618L260.904 264.149C260.952 264.963 261.309 265.727 261.902 266.287C262.495 266.846 263.279 267.158 264.095 267.159H286.568C287.383 267.158 288.168 266.846 288.761 266.287C289.354 265.727 289.711 264.963 289.759 264.149L290.663 256.618C290.688 256.184 290.624 255.75 290.474 255.342C290.325 254.933 290.094 254.56 289.795 254.244C289.496 253.928 289.136 253.677 288.737 253.506C288.337 253.334 287.907 253.246 287.472 253.247H263.191C262.756 253.246 262.326 253.334 261.926 253.506C261.527 253.677 261.167 253.928 260.868 254.244C260.569 254.56 260.338 254.933 260.189 255.342C260.039 255.75 259.975 256.184 260 256.618Z" fill="#E6E6E6"/>
<path d="M258.661 258.209H291.992C292.228 258.209 292.455 258.122 292.632 257.966C292.808 257.809 292.922 257.594 292.95 257.36L293.746 250.182C293.76 250.048 293.745 249.912 293.703 249.783C293.662 249.655 293.593 249.537 293.503 249.436C293.413 249.336 293.303 249.255 293.179 249.2C293.056 249.145 292.923 249.116 292.787 249.115H257.866C257.731 249.116 257.597 249.145 257.474 249.2C257.351 249.255 257.241 249.336 257.15 249.436C257.06 249.537 256.992 249.655 256.95 249.783C256.908 249.912 256.894 250.048 256.908 250.182L257.703 257.36C257.732 257.594 257.845 257.809 258.022 257.966C258.198 258.122 258.426 258.209 258.661 258.209Z" fill="#F5F5F5"/>
<path d="M208.77 345.689H223.252V267.159H208.77V345.689Z" fill="#E6E6E6"/>
<path d="M213.109 345.69H208.77V330.656H217.656L213.109 345.69Z" fill="#F0F0F0"/>
<path d="M389.181 345.689H403.663V267.159H389.181V345.689Z" fill="#E6E6E6"/>
<path d="M208.77 336.469H392.978V267.159H208.77V336.469Z" fill="#F0F0F0"/>
<path d="M388.63 345.69H392.969V330.656H384.083L388.63 345.69Z" fill="#F0F0F0"/>
<path d="M212.133 299.775H389.606V272.041H212.133V299.775Z" fill="#E6E6E6"/>
<path d="M238.141 280.656H360.696C364.927 280.656 368.977 277.23 371.897 271.191H226.949C229.86 277.23 233.91 280.656 238.141 280.656Z" fill="#F0F0F0"/>
<path d="M212.133 331.985H389.606V304.25H212.133V331.985Z" fill="#E6E6E6"/>
<path d="M238.141 312.865H360.696C364.927 312.865 368.977 309.448 371.897 303.409H226.949C229.86 309.448 233.91 312.865 238.141 312.865Z" fill="#F0F0F0"/>
<path d="M390.745 248.754C390.745 248.754 389.949 267.159 359.593 267.159C329.237 267.159 328.45 248.754 328.45 248.754H390.745Z" fill="#F5F5F5"/>
<path d="M390.745 239.198C390.745 239.198 389.949 257.64 359.593 257.64C329.237 257.64 328.45 239.235 328.45 239.235L390.745 239.198Z" fill="#F5F5F5"/>
<path d="M226 386.514C322.803 386.514 401.277 381.933 401.277 376.281C401.277 370.629 322.803 366.048 226 366.048C129.197 366.048 50.7234 370.629 50.7234 376.281C50.7234 381.933 129.197 386.514 226 386.514Z" fill="#F5F5F5"/>
<path d="M332.582 122.375C327.158 125.34 325.35 134.127 327.89 137.951C318.488 140.771 323.37 156.934 338.738 157.838C354.106 158.743 365.804 153.129 358.255 141.142C365.722 131.08 362.287 119.843 355.742 121.082C348.718 107.007 325.196 107.422 332.582 122.375Z" fill="#263238"/>
<path d="M348.944 158.923C346.573 158.916 344.249 158.266 342.218 157.043C342.186 157.031 342.156 157.012 342.132 156.988C342.108 156.964 342.089 156.934 342.077 156.902C342.066 156.869 342.061 156.834 342.065 156.8C342.068 156.766 342.079 156.732 342.096 156.703C342.114 156.673 342.138 156.647 342.166 156.628C342.195 156.608 342.227 156.596 342.261 156.59C342.295 156.585 342.33 156.587 342.364 156.596C342.397 156.606 342.427 156.623 342.453 156.645C345.073 158.213 348.167 158.789 351.175 158.268C354.183 157.747 356.904 156.164 358.843 153.807C361.311 150.751 362.459 145.852 358.147 141.277C358.126 141.255 358.11 141.23 358.099 141.201C358.088 141.173 358.083 141.143 358.084 141.113C358.085 141.083 358.092 141.053 358.104 141.025C358.116 140.998 358.134 140.973 358.156 140.952C358.178 140.931 358.204 140.915 358.232 140.904C358.26 140.893 358.29 140.888 358.32 140.889C358.351 140.89 358.38 140.897 358.408 140.909C358.436 140.921 358.461 140.939 358.481 140.961C362.947 145.752 361.781 150.905 359.195 154.096C357.943 155.601 356.376 156.813 354.605 157.647C352.834 158.481 350.902 158.917 348.944 158.923Z" fill="#263238"/>
<path d="M326.19 140.952C326.144 140.951 326.1 140.935 326.062 140.908C326.025 140.88 325.997 140.842 325.983 140.798C323.578 133.91 326.796 124.662 332.482 122.131C332.538 122.111 332.599 122.112 332.653 122.133C332.708 122.155 332.753 122.196 332.781 122.248C332.793 122.275 332.799 122.305 332.8 122.335C332.8 122.364 332.795 122.394 332.784 122.422C332.773 122.449 332.757 122.475 332.736 122.496C332.715 122.517 332.69 122.535 332.663 122.546C327.167 124.987 324.066 133.955 326.407 140.626C326.417 140.655 326.421 140.685 326.419 140.715C326.417 140.745 326.409 140.775 326.396 140.801C326.383 140.828 326.364 140.852 326.341 140.872C326.318 140.892 326.291 140.906 326.263 140.916L326.19 140.952Z" fill="#263238"/>
<path d="M324.717 130.999H324.635C324.581 130.977 324.536 130.934 324.511 130.881C324.486 130.827 324.482 130.766 324.5 130.71C326.127 126.397 329.201 123.116 332.509 122.14C332.567 122.123 332.629 122.13 332.681 122.158C332.734 122.187 332.773 122.236 332.79 122.293C332.806 122.351 332.8 122.413 332.771 122.465C332.742 122.518 332.693 122.557 332.636 122.574C329.463 123.478 326.507 126.687 324.925 130.872C324.906 130.911 324.876 130.944 324.839 130.966C324.802 130.988 324.76 131 324.717 130.999Z" fill="#263238"/>
<path d="M337.373 371.463L332.148 371.472L331.271 351.846L340.067 352.063L337.373 371.463Z" fill="#FFB573"/>
<path d="M328.288 202.107C328.288 202.107 327.827 256.573 326.679 280.285C326.633 280.99 326.633 281.696 326.679 282.401C328.396 306.167 331.244 351.846 331.244 351.846L340.094 352.072C340.094 352.072 347.805 315.596 343.032 282.554C350.707 245.183 354.838 211.834 347.887 202.098L328.288 202.107Z" fill="#FEB139"/>
<path opacity="0.2" d="M343.113 223.74C340.401 232.834 343.041 262.07 344.442 275.557C346.35 265.812 347.977 256.438 349.179 247.795L343.113 223.74Z" fill="black"/>
<path d="M331.56 368.932H338.349C338.492 368.926 338.632 368.976 338.739 369.07C338.847 369.164 338.914 369.296 338.928 369.438L339.615 374.997C339.619 375.169 339.588 375.34 339.524 375.5C339.461 375.66 339.366 375.806 339.246 375.929C339.126 376.052 338.982 376.15 338.823 376.216C338.665 376.283 338.494 376.317 338.322 376.317C335.33 376.317 333.902 376.1 330.132 376.109C327.809 376.109 326.407 376.344 323.198 376.344C319.989 376.344 319.989 373.271 321.336 372.991C327.384 371.734 328.161 371.038 330.268 369.375C330.637 369.087 331.092 368.931 331.56 368.932Z" fill="#263238"/>
<path d="M333.793 162.024C333.459 163.895 333.079 165.64 332.672 167.448C332.265 169.256 331.849 171.064 331.37 172.872C330.421 176.488 329.436 180.032 328.134 183.612C327.481 185.462 326.72 187.274 325.856 189.036C325.377 190.014 324.824 190.953 324.202 191.847C324.021 192.091 323.858 192.326 323.623 192.597C323.398 192.885 323.147 193.152 322.873 193.393C322.18 194.048 321.344 194.534 320.432 194.812C319.476 195.101 318.461 195.142 317.485 194.93C316.716 194.752 315.983 194.446 315.315 194.026C314.302 193.377 313.404 192.564 312.658 191.621C311.375 190.026 310.353 188.238 309.629 186.324C309.47 185.917 309.456 185.467 309.59 185.051C309.724 184.636 309.997 184.279 310.364 184.041C310.73 183.803 311.167 183.698 311.602 183.745C312.036 183.792 312.441 183.988 312.748 184.299L312.856 184.416C313.978 185.601 315.187 186.701 316.472 187.707C316.975 188.09 317.533 188.395 318.127 188.611C318.344 188.665 318.497 188.665 318.515 188.611C318.534 188.557 318.389 188.52 318.262 188.529C318.136 188.538 318.054 188.584 318.091 188.529C318.133 188.451 318.182 188.375 318.235 188.303C318.325 188.194 318.404 188.076 318.47 187.951C318.849 187.328 319.181 186.679 319.465 186.007C320.123 184.459 320.702 182.878 321.2 181.27C322.231 177.962 323.171 174.517 323.985 171.055C324.798 167.593 325.603 164.058 326.326 160.605C326.549 159.65 327.133 158.819 327.956 158.286C328.779 157.753 329.776 157.56 330.738 157.748C331.701 157.935 332.553 158.488 333.116 159.291C333.679 160.093 333.909 161.083 333.757 162.051L333.793 162.024Z" fill="#FFB573"/>
<path d="M325.576 194.713C325.576 196.936 360.235 197.37 360.235 194.432L342.526 189.912L325.576 194.713Z" fill="#263238"/>
<path d="M331.94 156.193C341.078 154.665 350.414 154.757 359.521 156.464C360.055 156.549 360.566 156.742 361.023 157.032C361.48 157.321 361.872 157.702 362.176 158.149C362.48 158.596 362.689 159.101 362.791 159.632C362.892 160.163 362.884 160.71 362.766 161.237C357.867 183.178 358.147 190.554 358.617 202.107H328.297C326.778 182.834 325.973 171.832 325.775 165.586C325.612 160.822 327.248 156.889 331.94 156.193Z" fill="#FFB573"/>
<path opacity="0.2" d="M359.43 162.566C359.24 165.629 359.645 168.699 360.624 171.606C361.012 169.518 361.464 167.276 361.98 164.826L359.43 162.566Z" fill="black"/>
<path d="M349.568 140.174C348.664 144.559 347.841 152.613 350.915 155.542C350.915 155.542 349.712 159.999 341.558 159.999C332.582 159.999 337.264 155.542 337.264 155.542C342.164 154.367 342.037 150.733 341.188 147.325L349.568 140.174Z" fill="#FFB573"/>
<path opacity="0.2" d="M346.151 143.094L341.188 147.352C341.399 148.146 341.541 148.957 341.613 149.775C343.484 149.504 346.051 147.452 346.25 145.49C346.362 144.692 346.328 143.88 346.151 143.094Z" fill="black"/>
<path d="M354.305 132.563C352.623 139.713 352.072 142.778 347.787 145.861C341.351 150.507 332.925 146.891 332.419 139.379C331.967 132.626 334.778 122.058 342.363 120.395C344.029 120.019 345.763 120.075 347.401 120.558C349.039 121.041 350.527 121.934 351.723 123.153C352.919 124.371 353.784 125.875 354.236 127.522C354.688 129.169 354.712 130.904 354.305 132.563Z" fill="#FFB573"/>
<path d="M351.575 121.805C343.999 122.646 346.304 136.766 352 138.131C358.671 134.868 362.784 122.474 351.575 121.805Z" fill="#263238"/>
<path d="M388.657 358.535L383.423 360.126L375.784 344.126L383.839 341.929L388.657 358.535Z" fill="#FFB573"/>
<path d="M381.913 358.526L388.639 355.923C388.756 355.878 388.886 355.875 389.006 355.917C389.125 355.958 389.225 356.04 389.29 356.149L392.3 361.229C392.372 361.356 392.416 361.497 392.429 361.642C392.442 361.787 392.423 361.934 392.374 362.071C392.325 362.208 392.247 362.333 392.145 362.438C392.044 362.542 391.921 362.623 391.785 362.676C389.425 363.58 388.286 364.041 385.33 365.189C383.522 365.894 380.683 368.244 378.17 369.212C375.657 370.179 374.554 367.883 375.458 367.087C377.908 364.95 379.837 362.282 381.099 359.286C381.176 359.11 381.288 358.952 381.427 358.822C381.567 358.691 381.733 358.591 381.913 358.526Z" fill="#263238"/>
<path d="M336.614 202.107C336.614 202.107 347.76 259.123 351.982 281.659C356.348 305.163 375.802 344.09 375.802 344.09L383.875 341.884C383.875 341.884 372.819 300.246 367.666 279.607C366.653 242.236 367.847 211.807 358.626 202.071L336.614 202.107Z" fill="#FEB139"/>
<path d="M342.444 132.517C342.345 133.105 341.956 133.53 341.54 133.421C341.124 133.313 340.926 132.825 341.025 132.237C341.124 131.65 341.522 131.225 341.929 131.288C342.336 131.351 342.553 131.93 342.444 132.517Z" fill="#263238"/>
<path d="M335.8 131.388C335.7 131.975 335.303 132.4 334.896 132.292C334.489 132.183 334.281 131.704 334.381 131.107C334.48 130.511 334.878 130.095 335.285 130.203C335.691 130.312 335.899 130.8 335.8 131.388Z" fill="#263238"/>
<path d="M335.447 130.267L334.1 129.616C334.1 129.616 334.643 130.845 335.447 130.267Z" fill="#263238"/>
<path d="M337.662 132.798C336.916 134.048 336.003 135.191 334.95 136.197C335.214 136.46 335.531 136.664 335.881 136.793C336.23 136.923 336.604 136.975 336.975 136.947L337.662 132.798Z" fill="#ED893E"/>
<path d="M339.778 139.795C339.474 139.795 339.172 139.768 338.874 139.713C338.851 139.71 338.829 139.702 338.81 139.69C338.79 139.678 338.773 139.663 338.759 139.644C338.746 139.626 338.736 139.605 338.731 139.582C338.726 139.56 338.725 139.537 338.729 139.514C338.738 139.47 338.763 139.43 338.8 139.403C338.837 139.376 338.883 139.364 338.928 139.37C339.658 139.509 340.41 139.475 341.124 139.271C341.838 139.067 342.495 138.698 343.041 138.195C343.057 138.177 343.077 138.163 343.099 138.153C343.12 138.144 343.144 138.139 343.168 138.139C343.191 138.139 343.215 138.144 343.237 138.153C343.259 138.163 343.278 138.177 343.294 138.195C343.325 138.228 343.342 138.271 343.342 138.317C343.342 138.362 343.325 138.405 343.294 138.439C342.348 139.338 341.083 139.826 339.778 139.795Z" fill="#263238"/>
<path d="M355.335 138.728C354.615 139.952 353.443 140.845 352.072 141.214C350.264 141.675 349.36 140.039 349.92 138.339C350.4 136.812 351.936 134.723 353.753 135.004C354.148 135.076 354.518 135.245 354.832 135.495C355.145 135.746 355.391 136.07 355.548 136.44C355.705 136.809 355.767 137.211 355.73 137.611C355.693 138.01 355.557 138.394 355.335 138.728Z" fill="#FFB573"/>
<path d="M345.328 131.614C345.255 131.613 345.184 131.589 345.125 131.545C345.067 131.501 345.024 131.439 345.003 131.369C344.524 129.824 342.544 129.155 342.526 129.155C342.481 129.141 342.44 129.119 342.404 129.089C342.368 129.06 342.339 129.023 342.318 128.982C342.297 128.94 342.284 128.895 342.281 128.848C342.278 128.802 342.284 128.756 342.3 128.712C342.313 128.667 342.335 128.626 342.365 128.59C342.395 128.554 342.431 128.525 342.473 128.504C342.514 128.483 342.559 128.47 342.606 128.467C342.652 128.464 342.699 128.47 342.743 128.486C342.833 128.486 345.084 129.272 345.672 131.198C345.686 131.242 345.69 131.289 345.686 131.335C345.682 131.382 345.668 131.427 345.647 131.468C345.625 131.509 345.595 131.546 345.559 131.575C345.523 131.605 345.481 131.627 345.437 131.641L345.328 131.614Z" fill="#263238"/>
<path d="M334.318 127.97C334.257 127.969 334.198 127.953 334.146 127.923C334.094 127.893 334.05 127.85 334.019 127.798C333.974 127.717 333.963 127.621 333.988 127.531C334.013 127.441 334.073 127.365 334.155 127.319C334.631 127.031 335.169 126.861 335.724 126.824C336.279 126.786 336.835 126.882 337.346 127.102C337.428 127.145 337.49 127.218 337.519 127.306C337.548 127.394 337.541 127.49 337.5 127.572C337.457 127.655 337.384 127.717 337.296 127.746C337.208 127.774 337.112 127.767 337.03 127.726C336.621 127.559 336.18 127.49 335.74 127.525C335.301 127.559 334.875 127.696 334.498 127.925C334.444 127.958 334.381 127.974 334.318 127.97Z" fill="#263238"/>
<path d="M361.998 157.721C364.574 161.093 366.916 164.501 369.139 168.099C370.242 169.907 371.327 171.715 372.321 173.64C373.402 175.636 374.294 177.727 374.988 179.887C375.088 180.176 375.16 180.511 375.241 180.791L375.305 181.053L375.386 181.433C375.423 181.67 375.447 181.908 375.458 182.147C375.5 182.932 375.442 183.718 375.287 184.488C375.029 185.71 374.645 186.9 374.138 188.041C373.247 190.057 372.195 191.998 370.993 193.845C368.704 197.395 366.131 200.754 363.3 203.888C362.989 204.236 362.561 204.455 362.098 204.505C361.635 204.555 361.17 204.431 360.793 204.158C360.416 203.884 360.154 203.481 360.058 203.025C359.961 202.569 360.037 202.094 360.271 201.692V201.646C362.269 198.166 364.249 194.586 365.957 191.042C366.795 189.334 367.523 187.574 368.136 185.772C368.4 185.007 368.582 184.216 368.678 183.413C368.712 183.176 368.712 182.935 368.678 182.699V182.644V182.536C368.615 182.355 368.57 182.192 368.488 182.002C367.785 180.308 366.957 178.667 366.012 177.094C365.017 175.421 363.959 173.749 362.875 172.077C360.669 168.768 358.355 165.441 356.004 162.223C355.441 161.415 355.214 160.42 355.372 159.449C355.53 158.477 356.06 157.605 356.85 157.017C357.64 156.43 358.627 156.172 359.603 156.3C360.58 156.428 361.468 156.931 362.079 157.703L361.998 157.721Z" fill="#FFB573"/>
<path d="M342.101 131.396L340.754 130.746C340.754 130.746 341.287 131.984 342.101 131.396Z" fill="#263238"/>
<path d="M326.624 163.425C327.183 161.144 327.902 158.906 328.776 156.727C330.163 156.312 331.58 156.01 333.016 155.823C335.939 158.414 338.344 161.537 340.103 165.025C343.981 161.102 351.403 157.133 355.923 155.687C357.452 155.591 358.986 155.784 360.443 156.256C357.36 165.984 354.214 175.765 359.792 178.278C359.693 182.897 359.955 188.629 360.19 194.423C354.919 193.845 334.019 192.841 325.53 194.704C325.097 188.828 324.943 183.856 324.97 179.562C321.019 174.526 324.979 167.674 326.624 163.425Z" fill="#263238"/>
<mask id="mask0_69_2182" style="mask-type:luminance" maskUnits="userSpaceOnUse" x="323" y="155" width="38" height="40">
<path d="M326.624 163.425C327.183 161.144 327.902 158.906 328.776 156.727C330.163 156.312 331.58 156.01 333.016 155.823C335.939 158.414 338.344 161.537 340.103 165.025C343.981 161.102 351.403 157.133 355.923 155.687C357.452 155.591 358.986 155.784 360.443 156.256C357.36 165.984 354.214 175.765 359.792 178.278C359.693 182.897 359.955 188.629 360.19 194.423C354.919 193.845 334.019 192.841 325.53 194.704C325.097 188.828 324.943 183.856 324.97 179.562C321.019 174.526 324.979 167.674 326.624 163.425Z" fill="white"/>
</mask>
<g mask="url(#mask0_69_2182)">
<g opacity="0.2">
<path d="M334.932 181.514C334.885 181.52 334.84 181.538 334.802 181.567C334.764 181.595 334.734 181.633 334.715 181.677C334.074 183.475 334.093 185.442 334.769 187.228C334.146 186.703 333.531 186.188 332.961 185.664C333.47 184.575 333.667 183.367 333.53 182.173C333.393 180.979 332.927 179.846 332.184 178.902C332.155 178.865 332.118 178.836 332.076 178.817C332.033 178.798 331.986 178.79 331.94 178.793C331.892 178.797 331.846 178.814 331.808 178.843C331.769 178.872 331.74 178.911 331.723 178.956C331.061 180.804 331.103 182.832 331.84 184.651C331.027 183.91 330.249 183.169 329.535 182.454C330.069 181.36 330.284 180.138 330.154 178.927C330.024 177.717 329.556 176.568 328.803 175.611C328.775 175.574 328.737 175.545 328.695 175.526C328.652 175.507 328.605 175.499 328.559 175.503C328.511 175.506 328.465 175.524 328.427 175.553C328.388 175.581 328.359 175.621 328.342 175.665C327.685 177.518 327.726 179.546 328.459 181.37C327.221 180.077 326.19 178.902 325.422 177.925C325.146 176.832 324.597 175.827 323.827 175.003C323.058 174.18 322.092 173.565 321.02 173.216C320.976 173.208 320.931 173.211 320.889 173.224C320.846 173.237 320.808 173.26 320.776 173.291C320.744 173.322 320.72 173.36 320.706 173.402C320.692 173.443 320.688 173.488 320.694 173.532C321.508 177.537 324.455 178.233 325.051 178.332C325.476 178.866 325.955 179.453 326.534 180.086C325.117 179.451 323.541 179.262 322.014 179.544C321.968 179.554 321.925 179.578 321.892 179.611C321.858 179.645 321.835 179.687 321.824 179.733C321.811 179.778 321.808 179.826 321.818 179.871C321.827 179.917 321.848 179.96 321.878 179.996C322.656 180.882 323.665 181.533 324.792 181.877C325.92 182.22 327.121 182.242 328.261 181.939C328.767 182.464 329.309 182.997 329.879 183.548C327.964 183.001 325.92 183.122 324.084 183.892C324.041 183.915 324.004 183.949 323.979 183.992C323.953 184.034 323.94 184.082 323.94 184.131C323.94 184.181 323.953 184.229 323.979 184.271C324.004 184.313 324.041 184.348 324.084 184.371C325.116 185.014 326.299 185.374 327.514 185.417C328.729 185.46 329.934 185.183 331.009 184.615C331.768 185.329 332.573 186.043 333.404 186.758C331.552 185.922 329.456 185.799 327.519 186.414C327.474 186.432 327.435 186.462 327.405 186.5C327.375 186.538 327.355 186.583 327.348 186.631C327.343 186.678 327.349 186.725 327.367 186.769C327.384 186.813 327.412 186.853 327.447 186.884C328.399 187.655 329.545 188.147 330.759 188.307C331.973 188.466 333.208 188.287 334.326 187.788L334.399 187.743C334.427 187.713 334.446 187.675 334.453 187.634L335.474 188.466C335.506 188.509 335.55 188.54 335.601 188.556C336.143 188.99 336.695 189.415 337.255 189.831C337.304 189.873 337.367 189.896 337.432 189.896C337.496 189.896 337.559 189.873 337.608 189.831C337.629 189.802 337.644 189.769 337.652 189.734C337.66 189.699 337.661 189.663 337.655 189.628C337.649 189.593 337.637 189.559 337.618 189.529C337.599 189.498 337.574 189.472 337.545 189.451C337.029 189.063 336.514 188.674 336.017 188.267C336.486 187.19 336.655 186.006 336.506 184.841C336.356 183.676 335.894 182.573 335.167 181.65C335.143 181.609 335.109 181.574 335.068 181.551C335.027 181.527 334.98 181.514 334.932 181.514Z" fill="white"/>
<path d="M326.019 167.511C326.066 167.506 326.111 167.488 326.149 167.459C326.187 167.43 326.217 167.392 326.236 167.349C326.877 165.551 326.857 163.583 326.181 161.798C326.805 162.322 327.42 162.838 327.989 163.362C327.48 164.451 327.283 165.659 327.421 166.853C327.558 168.047 328.024 169.179 328.767 170.124C328.795 170.161 328.832 170.19 328.875 170.209C328.918 170.228 328.964 170.236 329.011 170.232C329.059 170.229 329.105 170.211 329.143 170.182C329.181 170.154 329.211 170.115 329.228 170.07C329.89 168.221 329.848 166.194 329.11 164.374C329.924 165.116 330.701 165.857 331.416 166.571C330.882 167.665 330.667 168.888 330.797 170.098C330.926 171.309 331.395 172.458 332.148 173.414C332.176 173.451 332.213 173.481 332.256 173.5C332.299 173.519 332.345 173.527 332.392 173.523C332.44 173.519 332.486 173.502 332.524 173.473C332.562 173.444 332.592 173.405 332.609 173.36C333.266 171.508 333.224 169.479 332.491 167.656C333.73 168.949 334.76 170.124 335.529 171.1C335.805 172.193 336.353 173.199 337.123 174.022C337.893 174.846 338.859 175.461 339.931 175.81C339.975 175.818 340.02 175.815 340.062 175.802C340.104 175.789 340.143 175.766 340.175 175.735C340.206 175.704 340.23 175.666 340.245 175.624C340.259 175.582 340.263 175.537 340.257 175.494C339.443 171.489 336.496 170.793 335.899 170.693C335.475 170.16 334.995 169.572 334.417 168.94C335.833 169.577 337.411 169.763 338.937 169.473C338.983 169.465 339.025 169.444 339.059 169.411C339.093 169.379 339.117 169.338 339.127 169.292C339.14 169.247 339.142 169.2 339.133 169.154C339.123 169.108 339.103 169.066 339.072 169.03C338.295 168.144 337.286 167.492 336.158 167.149C335.031 166.805 333.829 166.784 332.69 167.086C332.184 166.562 331.642 166.029 331.072 165.477C332.986 166.025 335.03 165.904 336.867 165.134C336.91 165.111 336.947 165.076 336.972 165.034C336.997 164.992 337.011 164.943 337.011 164.894C337.011 164.845 336.997 164.797 336.972 164.754C336.947 164.712 336.91 164.678 336.867 164.655C335.835 164.012 334.652 163.651 333.437 163.608C332.222 163.566 331.017 163.842 329.942 164.411C329.183 163.696 328.378 162.982 327.546 162.268C329.399 163.104 331.494 163.226 333.431 162.612C333.475 162.592 333.514 162.562 333.544 162.524C333.574 162.486 333.594 162.442 333.603 162.395C333.608 162.348 333.601 162.3 333.584 162.256C333.567 162.212 333.539 162.173 333.504 162.142C332.552 161.371 331.406 160.878 330.192 160.719C328.977 160.559 327.743 160.739 326.624 161.238L326.552 161.283C326.524 161.313 326.505 161.35 326.498 161.391L325.476 160.56C325.445 160.517 325.4 160.485 325.35 160.469C324.807 160.035 324.256 159.61 323.695 159.195C323.646 159.152 323.584 159.129 323.519 159.129C323.454 159.129 323.392 159.152 323.343 159.195C323.302 159.253 323.285 159.325 323.295 159.395C323.305 159.466 323.341 159.53 323.397 159.574C323.921 159.963 324.437 160.352 324.934 160.758C324.464 161.835 324.295 163.019 324.445 164.184C324.595 165.35 325.057 166.452 325.784 167.376C325.807 167.417 325.842 167.451 325.883 167.475C325.924 167.499 325.971 167.511 326.019 167.511Z" fill="white"/>
<path d="M353.889 188.113C353.843 188.12 353.8 188.137 353.762 188.164C353.724 188.191 353.693 188.226 353.672 188.267C353.039 190.066 353.058 192.031 353.726 193.818C353.102 193.302 352.488 192.778 351.918 192.254C352.428 191.167 352.625 189.96 352.487 188.767C352.35 187.575 351.884 186.444 351.141 185.501C351.113 185.464 351.076 185.434 351.033 185.416C350.991 185.397 350.944 185.389 350.898 185.394C350.851 185.399 350.807 185.415 350.769 185.442C350.731 185.468 350.7 185.504 350.68 185.546C350.022 187.398 350.064 189.427 350.797 191.25C349.984 190.5 349.206 189.768 348.492 189.054C349.028 187.962 349.244 186.74 349.115 185.531C348.985 184.321 348.515 183.173 347.76 182.219C347.733 182.18 347.696 182.15 347.653 182.13C347.61 182.111 347.563 182.104 347.516 182.111C347.47 182.117 347.426 182.134 347.388 182.16C347.35 182.187 347.319 182.223 347.299 182.265C346.642 184.117 346.683 186.145 347.416 187.969C346.178 186.685 345.147 185.501 344.379 184.525C344.1 183.433 343.55 182.429 342.781 181.606C342.011 180.783 341.047 180.167 339.976 179.815C339.933 179.806 339.888 179.808 339.845 179.82C339.803 179.833 339.764 179.856 339.732 179.887C339.7 179.92 339.675 179.96 339.661 180.004C339.647 180.048 339.643 180.095 339.651 180.14C340.465 184.136 343.421 184.832 344.008 184.931C344.433 185.465 344.912 186.061 345.491 186.694C344.074 186.059 342.498 185.87 340.971 186.152C340.925 186.164 340.884 186.188 340.851 186.222C340.817 186.255 340.793 186.296 340.781 186.342C340.767 186.385 340.765 186.431 340.775 186.475C340.784 186.52 340.805 186.561 340.835 186.595C341.608 187.487 342.617 188.143 343.746 188.487C344.875 188.831 346.079 188.849 347.217 188.538C347.724 189.063 348.266 189.605 348.836 190.157C346.922 189.604 344.876 189.725 343.041 190.5C343 190.525 342.965 190.559 342.94 190.6C342.915 190.641 342.9 190.687 342.896 190.735C342.895 190.783 342.907 190.83 342.931 190.872C342.955 190.913 342.99 190.947 343.032 190.97C344.064 191.613 345.246 191.975 346.461 192.02C347.675 192.064 348.881 191.789 349.957 191.223C350.716 191.928 351.52 192.643 352.352 193.366C350.5 192.53 348.404 192.407 346.467 193.022C346.422 193.04 346.383 193.07 346.353 193.108C346.322 193.146 346.303 193.191 346.295 193.239C346.29 193.286 346.297 193.333 346.316 193.376C346.335 193.419 346.366 193.456 346.404 193.483C347.355 194.254 348.502 194.747 349.716 194.906C350.93 195.066 352.165 194.886 353.283 194.387L353.347 194.333C353.373 194.303 353.394 194.27 353.41 194.234L354.431 195.065C354.46 195.107 354.501 195.139 354.549 195.156C355.091 195.59 355.643 196.014 356.203 196.439C356.252 196.481 356.315 196.504 356.379 196.504C356.444 196.504 356.507 196.481 356.556 196.439C356.599 196.382 356.617 196.309 356.607 196.238C356.597 196.167 356.559 196.103 356.502 196.06C355.977 195.671 355.471 195.273 354.965 194.875C355.437 193.8 355.608 192.616 355.459 191.45C355.311 190.285 354.85 189.182 354.124 188.258C354.101 188.216 354.067 188.18 354.026 188.155C353.984 188.13 353.937 188.115 353.889 188.113Z" fill="white"/>
<path d="M371.273 194.36C371.225 194.364 371.179 194.381 371.141 194.41C371.102 194.439 371.073 194.478 371.056 194.523C370.411 196.319 370.427 198.287 371.101 200.073C370.477 199.549 369.872 199.025 369.293 198.509C369.804 197.422 370.003 196.213 369.868 195.019C369.732 193.825 369.267 192.692 368.525 191.747C368.495 191.709 368.457 191.679 368.412 191.66C368.368 191.641 368.319 191.634 368.271 191.639C368.225 191.645 368.18 191.664 368.142 191.692C368.104 191.721 368.074 191.758 368.055 191.802C367.397 193.651 367.439 195.676 368.172 197.497C367.358 196.756 366.59 196.014 365.876 195.3C366.41 194.206 366.624 192.984 366.495 191.773C366.365 190.563 365.897 189.413 365.144 188.457C365.115 188.42 365.078 188.391 365.035 188.372C364.993 188.353 364.946 188.345 364.9 188.348C364.852 188.352 364.806 188.369 364.767 188.398C364.729 188.427 364.7 188.466 364.683 188.511C364.021 190.363 364.063 192.393 364.8 194.215C363.562 192.923 362.522 191.747 361.763 190.771C361.487 189.678 360.938 188.673 360.168 187.849C359.398 187.025 358.432 186.41 357.36 186.061C357.316 186.051 357.271 186.053 357.227 186.065C357.184 186.077 357.144 186.1 357.112 186.131C357.08 186.163 357.056 186.202 357.042 186.245C357.029 186.288 357.026 186.333 357.035 186.378C357.848 190.382 360.795 191.078 361.392 191.178C361.808 191.711 362.296 192.299 362.875 192.932C361.457 192.298 359.881 192.109 358.355 192.389C358.31 192.403 358.269 192.428 358.236 192.461C358.203 192.494 358.179 192.534 358.165 192.579C358.152 192.625 358.152 192.672 358.163 192.718C358.174 192.764 358.196 192.806 358.228 192.841C359.004 193.726 360.012 194.376 361.138 194.72C362.264 195.063 363.463 195.086 364.601 194.785C365.117 195.309 365.65 195.843 366.219 196.394C364.308 195.846 362.267 195.968 360.434 196.737C360.39 196.759 360.354 196.793 360.328 196.834C360.302 196.876 360.289 196.924 360.289 196.973C360.288 197.02 360.299 197.068 360.322 197.111C360.344 197.153 360.376 197.19 360.416 197.217C361.45 197.857 362.634 198.216 363.85 198.259C365.066 198.301 366.272 198.026 367.349 197.461C368.109 198.172 368.904 198.886 369.736 199.603C367.884 198.767 365.788 198.645 363.851 199.26C363.806 199.277 363.767 199.306 363.738 199.344C363.709 199.383 363.692 199.429 363.688 199.477C363.684 199.524 363.69 199.571 363.707 199.615C363.725 199.659 363.752 199.698 363.788 199.73C364.74 200.5 365.886 200.991 367.1 201.151C368.314 201.311 369.548 201.132 370.667 200.634C370.688 200.638 370.709 200.638 370.73 200.634C370.764 200.607 370.787 200.568 370.794 200.525L371.815 201.357C371.845 201.397 371.886 201.428 371.933 201.447C372.475 201.881 373.027 202.306 373.587 202.722C373.636 202.764 373.699 202.787 373.763 202.787C373.828 202.787 373.89 202.764 373.94 202.722C373.962 202.694 373.979 202.662 373.988 202.627C373.998 202.592 374 202.556 373.995 202.52C373.99 202.485 373.978 202.451 373.959 202.42C373.94 202.389 373.915 202.363 373.885 202.342L372.349 201.158C372.82 200.082 372.991 198.898 372.843 197.733C372.695 196.568 372.234 195.464 371.508 194.541C371.489 194.492 371.458 194.449 371.416 194.417C371.375 194.385 371.325 194.365 371.273 194.36Z" fill="white"/>
<path d="M331.524 195.382C331.477 195.385 331.433 195.402 331.395 195.429C331.356 195.456 331.326 195.493 331.307 195.535C330.662 197.332 330.678 199.3 331.352 201.086C330.728 200.571 330.123 200.046 329.544 199.522C330.056 198.434 330.254 197.226 330.119 196.032C329.983 194.838 329.518 193.705 328.776 192.76C328.746 192.723 328.708 192.695 328.664 192.677C328.62 192.659 328.573 192.652 328.526 192.658C328.479 192.663 328.434 192.68 328.396 192.708C328.357 192.735 328.326 192.772 328.306 192.814C327.648 194.666 327.69 196.695 328.423 198.518C327.61 197.768 326.841 197.036 326.127 196.322C326.661 195.228 326.875 194.005 326.746 192.795C326.616 191.584 326.148 190.435 325.395 189.478C325.367 189.441 325.33 189.412 325.287 189.394C325.244 189.377 325.197 189.372 325.151 189.379C325.104 189.381 325.058 189.396 325.019 189.424C324.981 189.451 324.951 189.489 324.934 189.533C324.272 191.384 324.314 193.414 325.051 195.237C323.98 194.142 322.967 192.992 322.014 191.793C321.735 190.701 321.185 189.697 320.416 188.874C319.646 188.051 318.682 187.435 317.611 187.083C317.566 187.074 317.52 187.076 317.476 187.089C317.432 187.101 317.392 187.124 317.358 187.155C317.329 187.188 317.308 187.227 317.296 187.269C317.283 187.311 317.28 187.356 317.286 187.399C318.1 191.404 321.047 192.1 321.643 192.199C322.059 192.733 322.547 193.32 323.126 194.007C321.711 193.365 320.132 193.176 318.606 193.465C318.561 193.477 318.521 193.499 318.488 193.531C318.454 193.563 318.43 193.602 318.416 193.646C318.404 193.691 318.403 193.739 318.414 193.785C318.425 193.831 318.447 193.873 318.479 193.908C319.25 194.8 320.257 195.457 321.385 195.801C322.513 196.144 323.715 196.162 324.852 195.852C325.368 196.376 325.901 196.918 326.471 197.47C324.56 196.913 322.516 197.035 320.685 197.813C320.642 197.834 320.606 197.866 320.58 197.906C320.555 197.946 320.541 197.992 320.54 198.039C320.539 198.087 320.549 198.135 320.572 198.178C320.594 198.221 320.627 198.257 320.667 198.283C321.7 198.927 322.884 199.288 324.1 199.333C325.316 199.377 326.523 199.103 327.601 198.537C328.36 199.242 329.155 199.956 329.987 200.67C328.134 199.836 326.038 199.717 324.102 200.335C324.058 200.352 324.02 200.38 323.991 200.417C323.963 200.453 323.945 200.497 323.939 200.543C323.933 200.591 323.939 200.639 323.956 200.683C323.974 200.727 324.002 200.766 324.039 200.797C324.991 201.566 326.137 202.058 327.351 202.218C328.565 202.377 329.8 202.198 330.918 201.701C330.939 201.705 330.961 201.705 330.982 201.701C331.014 201.676 331.036 201.641 331.045 201.601L332.066 202.433C332.097 202.473 332.137 202.504 332.184 202.523C332.735 202.957 333.278 203.382 333.838 203.807C333.887 203.849 333.95 203.872 334.014 203.872C334.079 203.872 334.142 203.849 334.191 203.807C334.213 203.779 334.23 203.746 334.239 203.712C334.249 203.677 334.251 203.641 334.246 203.605C334.241 203.57 334.229 203.535 334.21 203.505C334.191 203.474 334.166 203.448 334.136 203.427L332.6 202.243C333.071 201.165 333.242 199.98 333.094 198.814C332.946 197.647 332.485 196.542 331.759 195.617C331.755 195.556 331.729 195.498 331.685 195.455C331.642 195.412 331.585 195.386 331.524 195.382Z" fill="white"/>
<path d="M353.31 157.296C353.263 157.303 353.219 157.321 353.181 157.349C353.143 157.378 353.113 157.415 353.093 157.459C352.46 159.258 352.479 161.223 353.148 163.009C352.524 162.485 351.909 161.97 351.34 161.445C351.849 160.357 352.046 159.148 351.908 157.954C351.771 156.76 351.305 155.628 350.562 154.683C350.534 154.647 350.496 154.617 350.454 154.598C350.411 154.579 350.365 154.571 350.318 154.575C350.27 154.579 350.224 154.596 350.186 154.625C350.148 154.654 350.118 154.693 350.101 154.738C349.444 156.587 349.485 158.613 350.219 160.433C349.405 159.692 348.628 158.95 347.913 158.236C348.447 157.142 348.662 155.92 348.532 154.709C348.403 153.499 347.934 152.349 347.181 151.393C347.153 151.355 347.116 151.326 347.073 151.307C347.031 151.288 346.984 151.28 346.937 151.284C346.889 151.288 346.843 151.305 346.805 151.334C346.767 151.363 346.737 151.402 346.72 151.447C346.063 153.299 346.105 155.328 346.838 157.151C345.599 155.859 344.569 154.683 343.8 153.707C343.524 152.614 342.976 151.609 342.206 150.785C341.436 149.962 340.47 149.346 339.398 148.997C339.354 148.99 339.309 148.993 339.267 149.006C339.225 149.019 339.186 149.042 339.154 149.072C339.122 149.103 339.098 149.141 339.084 149.183C339.07 149.225 339.066 149.27 339.072 149.314C339.886 153.318 342.842 154.015 343.43 154.114C343.854 154.647 344.334 155.235 344.912 155.868C343.495 155.232 341.919 155.043 340.392 155.325C340.347 155.339 340.307 155.364 340.274 155.397C340.241 155.43 340.216 155.471 340.202 155.515C340.189 155.56 340.187 155.607 340.196 155.653C340.206 155.699 340.226 155.742 340.257 155.777C341.034 156.664 342.043 157.315 343.171 157.659C344.298 158.002 345.499 158.024 346.639 157.721C347.145 158.245 347.687 158.779 348.257 159.33C346.342 158.783 344.299 158.904 342.462 159.674C342.421 159.698 342.386 159.732 342.361 159.773C342.336 159.814 342.321 159.861 342.318 159.909C342.317 159.958 342.329 160.006 342.353 160.049C342.377 160.092 342.411 160.127 342.453 160.153C343.485 160.795 344.668 161.156 345.883 161.199C347.098 161.242 348.303 160.965 349.378 160.397C350.137 161.111 350.942 161.825 351.773 162.539C349.921 161.703 347.825 161.581 345.888 162.196C345.843 162.214 345.804 162.243 345.774 162.282C345.744 162.32 345.724 162.365 345.717 162.413C345.711 162.461 345.719 162.509 345.738 162.553C345.757 162.598 345.787 162.637 345.825 162.666C346.775 163.436 347.92 163.928 349.133 164.087C350.345 164.247 351.578 164.068 352.696 163.57L352.768 163.525C352.796 163.495 352.815 163.457 352.822 163.416L353.844 164.248C353.877 164.289 353.921 164.32 353.97 164.338C354.513 164.772 355.064 165.197 355.625 165.613C355.674 165.655 355.736 165.678 355.801 165.678C355.865 165.678 355.928 165.655 355.977 165.613C356.02 165.555 356.039 165.483 356.029 165.412C356.018 165.341 355.98 165.276 355.923 165.233C355.399 164.844 354.892 164.456 354.386 164.049C354.858 162.973 355.029 161.789 354.881 160.624C354.733 159.459 354.271 158.355 353.545 157.432C353.52 157.392 353.485 157.359 353.444 157.336C353.403 157.312 353.357 157.298 353.31 157.296Z" fill="white"/>
<path d="M344.722 174.472C344.769 174.468 344.814 174.452 344.852 174.425C344.89 174.398 344.92 174.361 344.939 174.318C345.584 172.522 345.568 170.554 344.894 168.768C345.518 169.283 346.123 169.807 346.702 170.332C346.191 171.419 345.992 172.628 346.127 173.822C346.263 175.016 346.728 176.149 347.47 177.094C347.5 177.13 347.539 177.159 347.582 177.177C347.626 177.195 347.673 177.201 347.72 177.196C347.767 177.19 347.812 177.173 347.85 177.146C347.889 177.119 347.92 177.082 347.941 177.039C348.598 175.187 348.556 173.159 347.823 171.335C348.637 172.082 349.405 172.815 350.128 173.532C349.594 174.626 349.38 175.848 349.509 177.059C349.639 178.269 350.107 179.419 350.86 180.375C350.89 180.412 350.929 180.44 350.972 180.458C351.016 180.476 351.063 180.483 351.11 180.477C351.157 180.472 351.202 180.455 351.24 180.427C351.279 180.4 351.31 180.363 351.331 180.321C351.989 178.468 351.944 176.438 351.204 174.617C352.275 175.712 353.289 176.862 354.241 178.061C354.521 179.154 355.071 180.159 355.843 180.982C356.614 181.805 357.58 182.421 358.653 182.771C358.696 182.78 358.741 182.778 358.784 182.765C358.827 182.752 358.865 182.73 358.897 182.698C358.928 182.665 358.951 182.625 358.964 182.581C358.976 182.537 358.978 182.49 358.969 182.445C358.165 178.45 355.209 177.754 354.612 177.654C354.196 177.121 353.708 176.533 353.129 175.846C354.544 176.488 356.123 176.678 357.649 176.389C357.694 176.377 357.734 176.354 357.768 176.323C357.801 176.291 357.826 176.251 357.839 176.208C357.852 176.162 357.852 176.114 357.841 176.069C357.83 176.023 357.808 175.98 357.776 175.946C357.005 175.053 355.998 174.397 354.87 174.053C353.742 173.709 352.54 173.691 351.403 174.002C350.897 173.478 350.354 172.935 349.785 172.384C351.695 172.94 353.739 172.819 355.57 172.04C355.614 172.018 355.65 171.985 355.676 171.943C355.702 171.902 355.715 171.854 355.715 171.805C355.718 171.758 355.707 171.711 355.685 171.67C355.663 171.628 355.629 171.594 355.588 171.57C354.555 170.927 353.372 170.565 352.155 170.521C350.939 170.477 349.732 170.751 348.655 171.317C347.895 170.612 347.1 169.898 346.268 169.184C348.122 170.013 350.217 170.132 352.153 169.518C352.197 169.502 352.235 169.474 352.264 169.437C352.292 169.4 352.311 169.356 352.316 169.31C352.324 169.263 352.319 169.214 352.302 169.17C352.284 169.125 352.255 169.086 352.216 169.057C351.266 168.284 350.119 167.791 348.905 167.631C347.69 167.472 346.455 167.652 345.337 168.153C345.316 168.149 345.295 168.149 345.274 168.153C345.247 168.183 345.226 168.216 345.21 168.253L344.189 167.421C344.16 167.379 344.119 167.347 344.071 167.33C343.529 166.897 342.978 166.426 342.417 166.047C342.368 166.005 342.305 165.982 342.241 165.982C342.176 165.982 342.114 166.005 342.065 166.047C342.021 166.104 342.003 166.177 342.013 166.248C342.023 166.319 342.061 166.383 342.119 166.426L343.656 167.611C343.184 168.688 343.013 169.873 343.161 171.04C343.309 172.207 343.771 173.312 344.496 174.237C344.505 174.295 344.531 174.349 344.572 174.391C344.612 174.433 344.665 174.461 344.722 174.472Z" fill="white"/>
</g>
</g>
<path d="M348.691 182.247L288.123 188.358C286.508 188.522 285.023 189.321 283.996 190.578C282.969 191.836 282.483 193.45 282.645 195.065L284.724 215.776C286.301 214.658 288.144 213.973 290.069 213.79C291.994 213.607 293.933 213.932 295.693 214.732C297.453 215.532 298.972 216.78 300.099 218.351C301.226 219.922 301.922 221.761 302.116 223.684C302.311 225.608 301.997 227.549 301.207 229.314C300.418 231.078 299.179 232.605 297.614 233.741C296.05 234.878 294.215 235.584 292.293 235.79C290.37 235.995 288.428 235.693 286.658 234.914L288.747 255.624C288.913 257.239 289.712 258.723 290.969 259.751C292.226 260.779 293.838 261.268 295.454 261.112L356.022 255.01C357.638 254.841 359.122 254.04 360.15 252.782C361.178 251.523 361.666 249.91 361.51 248.293L355.408 187.725C355.236 186.111 354.435 184.629 353.177 183.603C351.919 182.577 350.307 182.09 348.691 182.247Z" fill="#FEB139"/>
<path opacity="0.3" d="M348.691 182.247L288.123 188.358C286.508 188.522 285.023 189.321 283.996 190.578C282.969 191.836 282.483 193.45 282.645 195.065L284.724 215.776C286.301 214.658 288.144 213.973 290.069 213.79C291.994 213.607 293.933 213.932 295.693 214.732C297.453 215.532 298.972 216.78 300.099 218.351C301.226 219.922 301.922 221.761 302.116 223.684C302.311 225.608 301.997 227.549 301.207 229.314C300.418 231.078 299.179 232.605 297.614 233.741C296.05 234.878 294.215 235.584 292.293 235.79C290.37 235.995 288.428 235.693 286.658 234.914L288.747 255.624C288.913 257.239 289.712 258.723 290.969 259.751C292.226 260.779 293.838 261.268 295.454 261.112L356.022 255.01C357.638 254.841 359.122 254.04 360.15 252.782C361.178 251.523 361.666 249.91 361.51 248.293L355.408 187.725C355.236 186.111 354.435 184.629 353.177 183.603C351.919 182.577 350.307 182.09 348.691 182.247Z" fill="black"/>
<path d="M365.216 200.824L362.414 199.603L355.833 201.285C355.078 201.482 354.411 201.924 353.934 202.541L352.542 204.349C352.245 204.745 352.095 205.232 352.117 205.726C352.138 206.221 352.33 206.692 352.66 207.061L354.233 208.797C354.61 209.21 355.133 209.46 355.692 209.494C356.251 209.528 356.8 209.343 357.225 208.978L360.796 205.913C360.796 205.913 365.099 203.897 365.216 200.824Z" fill="#FFB573"/>
<path d="M308.165 189.533L311.076 189.162C311.468 189.118 311.835 188.946 312.121 188.673C312.406 188.401 312.595 188.042 312.658 187.652L313.055 185.338C313.108 185.062 313.097 184.778 313.021 184.508C312.945 184.238 312.808 183.989 312.619 183.781C312.431 183.573 312.196 183.412 311.934 183.31C311.673 183.209 311.391 183.169 311.112 183.196L307.713 183.44C307.235 183.465 306.786 183.68 306.466 184.036C306.146 184.391 305.979 184.86 306.004 185.338L306.095 187.779C306.099 188.035 306.159 188.288 306.269 188.52C306.379 188.752 306.538 188.957 306.734 189.123C306.929 189.289 307.158 189.412 307.405 189.482C307.652 189.553 307.911 189.57 308.165 189.533Z" fill="#FFB573"/>
<path d="M353.464 123.098C346.286 126.714 333.676 125.05 333.676 125.05C333.676 125.05 340.709 113.552 353.464 123.098Z" fill="#263238"/>
<path d="M227.157 352.46L223.55 371.236L214.42 369.031L218.027 350.255L227.157 352.46Z" fill="#7F3E3B"/>
<path d="M214.709 365.216L224.861 367.422C225.018 367.452 225.158 367.541 225.254 367.67C225.349 367.799 225.393 367.958 225.376 368.118L224.671 375.576C224.648 375.763 224.586 375.943 224.489 376.105C224.392 376.267 224.263 376.407 224.109 376.516C223.955 376.624 223.78 376.7 223.595 376.737C223.41 376.775 223.219 376.773 223.035 376.733C219.844 375.983 218.895 375.513 214.854 374.636C210.144 373.596 208.472 373.876 202.939 372.665C199.594 371.933 199.748 368.425 201.249 368.416C205.212 368.426 209.107 367.387 212.54 365.406C213.212 365.069 213.988 365.001 214.709 365.216Z" fill="#263238"/>
<path opacity="0.2" d="M227.166 352.469L225.304 362.142L216.165 359.936L218.027 350.255L227.166 352.469Z" fill="black"/>
<path d="M243.05 280.15C253.762 248.636 262.241 211.446 262.241 211.446L231.686 209.511C231.686 209.511 227.166 257.767 224.834 280.023C222.393 303.147 214.809 355.353 214.809 355.353L228.595 358.147C228.595 358.147 241.522 308.987 243.05 280.15Z" fill="#263238"/>
<path opacity="0.2" d="M248.148 228.983L255.561 238.15C253.672 245.228 251.466 253.183 249.043 261.31C247.653 250.592 247.353 239.761 248.148 228.983Z" fill="#263238"/>
<path d="M215.007 357.315L227.663 360.081C227.916 360.137 228.18 360.098 228.405 359.971C228.63 359.844 228.801 359.639 228.884 359.394L230.276 355.317C230.324 355.179 230.343 355.032 230.33 354.886C230.318 354.741 230.275 354.599 230.204 354.471C230.133 354.343 230.036 354.232 229.919 354.144C229.802 354.056 229.668 353.994 229.526 353.961L215.794 350.752C215.65 350.718 215.5 350.715 215.354 350.743C215.208 350.771 215.07 350.829 214.949 350.915C214.827 351 214.726 351.111 214.65 351.238C214.574 351.366 214.527 351.508 214.51 351.656L214.194 356.176C214.165 356.433 214.233 356.691 214.383 356.901C214.533 357.111 214.755 357.259 215.007 357.315Z" fill="#263238"/>
<path opacity="0.1" d="M215.007 357.315L227.663 360.081C227.916 360.137 228.18 360.098 228.405 359.971C228.63 359.844 228.801 359.639 228.884 359.394L230.276 355.317C230.324 355.179 230.343 355.032 230.33 354.886C230.318 354.741 230.275 354.599 230.204 354.471C230.133 354.343 230.036 354.232 229.919 354.144C229.802 354.056 229.668 353.994 229.526 353.961L215.794 350.752C215.65 350.718 215.5 350.715 215.354 350.743C215.208 350.771 215.07 350.829 214.949 350.915C214.827 351 214.726 351.111 214.65 351.238C214.574 351.366 214.527 351.508 214.51 351.656L214.194 356.176C214.165 356.433 214.233 356.691 214.383 356.901C214.533 357.111 214.755 357.259 215.007 357.315Z" fill="white"/>
<path d="M277.42 351.81L277.989 371.182L268.723 371.056L268.154 351.683L277.42 351.81Z" fill="#7F3E3B"/>
<path d="M268.488 367.078L278.342 367.223C278.502 367.222 278.656 367.281 278.775 367.388C278.893 367.495 278.968 367.642 278.984 367.801L279.779 375.25C279.794 375.439 279.77 375.628 279.707 375.807C279.645 375.985 279.546 376.149 279.416 376.287C279.287 376.425 279.13 376.534 278.956 376.608C278.782 376.682 278.594 376.718 278.405 376.715C275.133 376.615 274.102 376.344 269.971 376.281C265.143 376.2 264.104 376.805 258.445 376.724C255.019 376.67 254.467 373.198 255.932 372.891C259.82 372.114 263.434 370.324 266.409 367.702C266.997 367.237 267.741 367.014 268.488 367.078Z" fill="#263238"/>
<path opacity="0.2" d="M277.429 351.819L277.718 361.799L268.443 361.672L268.154 351.683L277.429 351.819Z" fill="black"/>
<path d="M275.114 279.508C272.493 246.358 274.708 228.477 270.857 212.015L243.05 210.288C243.05 210.288 251.683 259.014 256.447 281.053C261.211 303.093 266.337 356.628 266.337 356.628L280.005 356.8C280.005 356.8 281.677 305.371 275.114 279.508Z" fill="#263238"/>
<path d="M266.373 359.087L279.309 359.286C279.577 359.289 279.835 359.189 280.032 359.008C280.228 358.826 280.348 358.576 280.367 358.309L280.647 354.042C280.658 353.901 280.64 353.76 280.595 353.626C280.549 353.492 280.477 353.369 280.382 353.264C280.287 353.159 280.172 353.074 280.044 353.016C279.915 352.957 279.776 352.925 279.634 352.921L265.559 352.487C265.403 352.482 265.247 352.512 265.104 352.575C264.96 352.638 264.833 352.732 264.731 352.851C264.63 352.97 264.556 353.111 264.516 353.262C264.476 353.414 264.471 353.572 264.502 353.726L265.406 358.246C265.454 358.472 265.574 358.676 265.749 358.828C265.923 358.979 266.142 359.07 266.373 359.087Z" fill="#263238"/>
<path opacity="0.1" d="M266.373 359.087L279.309 359.286C279.577 359.289 279.835 359.189 280.032 359.008C280.228 358.826 280.348 358.576 280.367 358.309L280.647 354.042C280.658 353.901 280.64 353.76 280.595 353.626C280.549 353.492 280.477 353.369 280.382 353.264C280.287 353.159 280.172 353.074 280.044 353.016C279.915 352.957 279.776 352.925 279.634 352.921L265.559 352.487C265.403 352.482 265.247 352.512 265.104 352.575C264.96 352.638 264.833 352.732 264.731 352.851C264.63 352.97 264.556 353.111 264.516 353.262C264.476 353.414 264.471 353.572 264.502 353.726L265.406 358.246C265.454 358.472 265.574 358.676 265.749 358.828C265.923 358.979 266.142 359.07 266.373 359.087Z" fill="white"/>
<path d="M242.155 159.294C241.088 161.599 239.976 163.642 238.765 165.748C237.553 167.855 236.279 169.898 234.868 171.904C233.443 173.977 231.884 175.954 230.204 177.826C228.339 179.98 226.152 181.834 223.722 183.322L223.406 183.503C222.865 183.821 222.264 184.021 221.64 184.089C221.017 184.158 220.386 184.093 219.79 183.901C218.027 183.331 216.318 182.689 214.646 182.002C212.973 181.315 211.346 180.556 209.746 179.76C208.146 178.965 206.582 178.124 205.045 177.22C203.509 176.316 202.008 175.412 200.525 174.318C199.995 173.942 199.612 173.392 199.443 172.763C199.275 172.135 199.331 171.467 199.602 170.876C199.873 170.284 200.342 169.806 200.928 169.523C201.514 169.241 202.181 169.172 202.813 169.328H202.912C204.53 169.717 206.203 170.187 207.83 170.612L212.72 171.904C214.339 172.347 215.966 172.718 217.566 173.116C219.166 173.514 220.766 173.821 222.339 174.146L218.443 174.734C219.796 173.611 221.01 172.331 222.059 170.919C223.297 169.328 224.49 167.574 225.675 165.766C226.859 163.958 227.935 162.069 229.001 160.152C230.068 158.236 231.153 156.256 232.111 154.43L232.165 154.331C232.886 153.131 234.032 152.246 235.376 151.853C236.719 151.46 238.161 151.587 239.415 152.21C240.669 152.832 241.643 153.904 242.142 155.211C242.641 156.519 242.63 157.967 242.109 159.267L242.155 159.294Z" fill="#7F3E3B"/>
<path d="M244.378 143.492C233.585 144.721 225.394 161.436 225.394 161.436L236.532 173.288C236.532 173.288 241.495 167.375 246.828 159.899C252.65 151.754 252.921 142.524 244.378 143.492Z" fill="#FEB139"/>
<path d="M243.05 145.996C247.199 144.522 265.785 146.9 265.785 146.9C262.169 151.564 259.15 190.192 258.815 212.395C254.865 212.937 239.714 211.897 236.215 211.084C236.667 202.369 240.301 161.49 243.05 145.996Z" fill="white"/>
<path d="M231.054 157.712C231.541 153.695 233.487 149.997 236.522 147.32C239.557 144.644 243.469 143.175 247.515 143.194C255.281 143.256 263.02 144.11 270.613 145.743C271.795 145.993 272.915 146.478 273.907 147.169C274.899 147.86 275.742 148.742 276.387 149.765C277.032 150.787 277.465 151.928 277.661 153.121C277.857 154.314 277.812 155.533 277.528 156.708C271.806 180.71 273.316 203.481 271.788 214.076C266.341 216.079 260.556 217 254.756 216.788C254.756 216.788 254.892 207.649 256.167 192.217C257.179 179.95 258.996 151.104 262.739 146.312C262.739 146.312 249.323 144.504 245.174 145.96C242.091 163.362 239.831 216.074 239.831 216.083C233.268 215.613 230.177 211.961 230.276 210.876C228.947 189.551 229.616 170.214 231.054 157.712Z" fill="#FEB139"/>
<path d="M263.218 131.017C261.961 134.633 260.506 141.042 262.829 144.64C262.947 144.807 263.026 144.998 263.061 145.2C263.096 145.401 263.086 145.608 263.032 145.805C262.977 146.002 262.88 146.185 262.746 146.34C262.613 146.495 262.446 146.618 262.259 146.701C258.525 148.855 254.21 149.785 249.92 149.359C244.089 148.889 244.496 146.258 245.996 144.549C246.351 144.155 246.842 143.909 247.371 143.862C252.876 143.203 252.93 139.885 252.135 136.63L263.218 131.017Z" fill="#7F3E3B"/>
<path opacity="0.2" d="M258.698 133.322L252.144 136.658C252.351 137.428 252.469 138.22 252.496 139.017C254.883 139.017 258.264 137.417 258.653 135.582C258.852 134.843 258.868 134.067 258.698 133.322Z" fill="black"/>
<path d="M254.478 118.448C254.724 115.187 252.95 112.394 250.516 112.211C248.081 112.027 245.908 114.521 245.662 117.782C245.415 121.043 247.189 123.835 249.624 124.019C252.058 124.203 254.231 121.709 254.478 118.448Z" fill="#263238"/>
<path d="M266.761 121.136C265.55 128.268 265.198 132.508 261.238 135.826C255.281 140.807 246.919 136.594 246.015 129.245C245.192 122.637 247.307 112.069 254.521 109.935C261.735 107.802 267.973 113.994 266.761 121.136Z" fill="#7F3E3B"/>
<path d="M265.207 127.166C265.116 127.166 265.008 127.048 264.908 127.102C261.672 128.91 260.623 125.023 260.822 122.438C260.889 121.575 261.136 120.736 261.549 119.976C261.962 119.216 262.531 118.552 263.218 118.026C259.71 118.424 256.311 116.164 256.257 114.058C252.379 115.766 247.705 115.866 245.599 112.25C243.492 108.634 246.503 103.906 250.517 105.162C248.889 102.251 255.769 96.4296 262.974 105.018C263.2 98.789 273.27 105.018 271.616 111.138C276.281 112.747 280.276 121.606 272.366 123.495C271.842 131.704 265.207 127.166 265.207 127.166Z" fill="#263238"/>
<path d="M269.022 129.407C267.927 130.751 266.363 131.63 264.646 131.866C262.477 132.11 261.997 129.905 263.109 127.898C264.113 126.09 266.445 123.794 268.38 124.499C270.314 125.204 270.432 127.69 269.022 129.407Z" fill="#7F3E3B"/>
<path d="M256.42 121.669C256.365 122.266 256.013 122.709 255.624 122.673C255.235 122.636 254.964 122.13 255.018 121.534C255.073 120.937 255.425 120.503 255.814 120.539C256.203 120.575 256.465 121.082 256.42 121.669Z" fill="#263238"/>
<path d="M249.414 120.892C249.359 121.479 249.007 121.922 248.618 121.886C248.229 121.85 247.967 121.344 248.012 120.756C248.058 120.169 248.419 119.717 248.808 119.753C249.197 119.789 249.504 120.295 249.414 120.892Z" fill="#263238"/>
<path d="M252.153 121.226C251.289 122.959 250.191 124.565 248.889 125.999C249.264 126.326 249.706 126.568 250.184 126.707C250.662 126.846 251.164 126.879 251.656 126.804L252.153 121.226Z" fill="#630F0F"/>
<path d="M253.482 129.679C254.138 129.725 254.797 129.637 255.418 129.421C256.04 129.205 256.611 128.865 257.098 128.422C257.114 128.406 257.126 128.386 257.135 128.364C257.143 128.343 257.147 128.32 257.147 128.297C257.146 128.274 257.141 128.251 257.132 128.23C257.123 128.209 257.11 128.19 257.093 128.174C257.076 128.158 257.057 128.145 257.035 128.136C257.014 128.128 256.991 128.124 256.968 128.124C256.945 128.125 256.922 128.13 256.901 128.139C256.88 128.148 256.861 128.161 256.844 128.178C256.294 128.665 255.636 129.015 254.924 129.199C254.212 129.383 253.467 129.395 252.749 129.236C252.727 129.23 252.704 129.23 252.682 129.234C252.66 129.238 252.639 129.247 252.62 129.26C252.601 129.272 252.585 129.289 252.573 129.308C252.561 129.327 252.554 129.349 252.55 129.371C252.542 129.417 252.552 129.464 252.577 129.502C252.602 129.541 252.641 129.568 252.686 129.579C252.975 129.624 253.228 129.661 253.482 129.679Z" fill="#263238"/>
<path d="M258.734 120.232C258.79 120.245 258.849 120.245 258.906 120.232C258.948 120.213 258.985 120.187 259.017 120.153C259.048 120.12 259.073 120.08 259.089 120.038C259.105 119.995 259.112 119.949 259.11 119.903C259.108 119.857 259.097 119.812 259.077 119.771C258.865 119.259 258.535 118.805 258.114 118.446C257.693 118.086 257.193 117.831 256.655 117.701C256.564 117.688 256.471 117.71 256.397 117.764C256.323 117.818 256.273 117.899 256.257 117.99C256.244 118.081 256.267 118.173 256.321 118.248C256.375 118.322 256.456 118.372 256.546 118.388C256.971 118.497 257.364 118.705 257.693 118.994C258.023 119.282 258.28 119.645 258.445 120.051C258.475 120.102 258.517 120.145 258.567 120.177C258.618 120.208 258.675 120.227 258.734 120.232Z" fill="#263238"/>
<path d="M246.476 118.008C246.532 118.023 246.591 118.024 246.647 118.012C246.704 117.999 246.757 117.973 246.801 117.936C247.123 117.644 247.51 117.432 247.929 117.317C248.348 117.203 248.789 117.188 249.215 117.276C249.302 117.301 249.396 117.29 249.476 117.246C249.556 117.202 249.614 117.128 249.64 117.041C249.665 116.952 249.655 116.857 249.611 116.776C249.567 116.695 249.493 116.634 249.405 116.607C248.867 116.484 248.307 116.493 247.774 116.634C247.24 116.774 246.748 117.04 246.34 117.411C246.308 117.443 246.282 117.481 246.265 117.523C246.247 117.565 246.238 117.61 246.238 117.655C246.238 117.701 246.247 117.746 246.265 117.788C246.282 117.83 246.308 117.868 246.34 117.9C246.375 117.947 246.421 117.985 246.476 118.008Z" fill="#263238"/>
<path d="M279.68 156.22C280.267 157.368 280.746 158.363 281.216 159.438C281.686 160.514 282.12 161.554 282.59 162.62C283.494 164.754 284.281 166.923 285.022 169.12C286.53 173.563 287.684 178.119 288.475 182.743L288.72 184.551L288.846 185.455V185.672V186.07C288.846 186.359 288.891 186.649 288.891 186.974C288.856 188.622 288.529 190.25 287.924 191.783C287.024 194.125 285.878 196.364 284.507 198.464C283.262 200.43 281.913 202.328 280.466 204.15C279.048 205.964 277.54 207.705 275.946 209.366C275.488 209.851 274.871 210.155 274.208 210.224C273.545 210.292 272.879 210.12 272.331 209.74C271.784 209.359 271.392 208.794 271.226 208.148C271.059 207.502 271.131 206.818 271.426 206.22V206.148C273.297 202.252 275.277 198.31 276.85 194.468C277.257 193.51 277.618 192.552 277.935 191.621C278.25 190.751 278.512 189.864 278.721 188.963C278.868 188.403 278.92 187.822 278.875 187.245L278.83 187.065L278.658 186.314L278.324 184.823C277.281 180.774 276.004 176.79 274.5 172.89C273.776 170.901 272.954 168.939 272.158 166.969C271.761 165.992 271.336 165.016 270.911 164.049L269.645 161.228L269.573 161.065C268.938 159.735 268.857 158.206 269.348 156.816C269.84 155.426 270.864 154.288 272.194 153.653C273.525 153.017 275.054 152.937 276.444 153.428C277.834 153.92 278.972 154.944 279.607 156.274L279.68 156.22Z" fill="#7F3E3B"/>
<path d="M271.544 145.996C283.585 149.033 286.912 164.429 286.912 164.429L271.959 175.15C271.959 175.15 268.253 171.272 267.132 162.16C266.617 157.811 269.103 145.878 271.544 145.996Z" fill="#FEB139"/>
<path d="M273.397 204.304L266.436 206.907L271.77 214.049C271.77 214.049 277.781 210.93 276.642 207.468L273.397 204.304Z" fill="#7F3E3B"/>
<path d="M261.256 207.92C259.381 207.605 257.457 207.779 255.669 208.426L259.123 187.905C259.39 186.303 259.011 184.66 258.068 183.337C257.126 182.013 255.698 181.117 254.096 180.845L194.071 170.738C192.471 170.474 190.832 170.853 189.511 171.793C188.19 172.733 187.294 174.157 187.02 175.755L183.512 196.321C185.298 195.666 187.224 195.491 189.099 195.815C190.766 196.095 192.346 196.753 193.718 197.74C195.091 198.726 196.219 200.014 197.015 201.505C197.811 202.996 198.255 204.649 198.312 206.338C198.369 208.027 198.037 209.707 197.343 211.248C196.649 212.789 195.61 214.15 194.307 215.226C193.004 216.303 191.471 217.066 189.827 217.457C188.183 217.848 186.471 217.857 184.823 217.482C183.175 217.107 181.635 216.36 180.321 215.296L176.859 235.817C176.592 237.42 176.971 239.063 177.913 240.386C178.855 241.709 180.283 242.605 181.885 242.878L241.91 252.984C243.511 253.249 245.152 252.87 246.474 251.93C247.797 250.99 248.694 249.566 248.971 247.967L252.424 227.437C253.739 228.484 255.276 229.216 256.917 229.579C258.558 229.942 260.26 229.925 261.894 229.531C263.528 229.136 265.05 228.374 266.345 227.303C267.64 226.231 268.673 224.878 269.366 223.347C270.059 221.816 270.393 220.146 270.344 218.466C270.294 216.786 269.862 215.14 269.08 213.652C268.298 212.164 267.186 210.875 265.831 209.881C264.475 208.888 262.91 208.217 261.256 207.92Z" fill="#FEB139"/>
<path opacity="0.6" d="M261.256 207.92C259.381 207.605 257.457 207.779 255.669 208.426L259.123 187.905C259.39 186.303 259.011 184.66 258.068 183.337C257.126 182.013 255.698 181.117 254.096 180.845L194.071 170.738C192.471 170.474 190.832 170.853 189.511 171.793C188.19 172.733 187.294 174.157 187.02 175.755L183.512 196.321C185.298 195.666 187.224 195.491 189.099 195.815C190.766 196.095 192.346 196.753 193.718 197.74C195.091 198.726 196.219 200.014 197.015 201.505C197.811 202.996 198.255 204.649 198.312 206.338C198.369 208.027 198.037 209.707 197.343 211.248C196.649 212.789 195.61 214.15 194.307 215.226C193.004 216.303 191.471 217.066 189.827 217.457C188.183 217.848 186.471 217.857 184.823 217.482C183.175 217.107 181.635 216.36 180.321 215.296L176.859 235.817C176.592 237.42 176.971 239.063 177.913 240.386C178.855 241.709 180.283 242.605 181.885 242.878L241.91 252.984C243.511 253.249 245.152 252.87 246.474 251.93C247.797 250.99 248.694 249.566 248.971 247.967L252.424 227.437C253.739 228.484 255.276 229.216 256.917 229.579C258.558 229.942 260.26 229.925 261.894 229.531C263.528 229.136 265.05 228.374 266.345 227.303C267.64 226.231 268.673 224.878 269.366 223.347C270.059 221.816 270.393 220.146 270.344 218.466C270.294 216.786 269.862 215.14 269.08 213.652C268.298 212.164 267.186 210.875 265.831 209.881C264.475 208.888 262.91 208.217 261.256 207.92Z" fill="white"/>
<path d="M263.181 213.922L265.469 216.11C265.909 216.534 266.486 216.786 267.095 216.823C267.705 216.859 268.308 216.677 268.795 216.309L271.769 214.076L266.436 206.935L263.136 210.243C262.893 210.485 262.702 210.774 262.572 211.091C262.443 211.409 262.378 211.749 262.382 212.092C262.386 212.435 262.459 212.774 262.597 213.088C262.734 213.403 262.933 213.686 263.181 213.922Z" fill="#7F3E3B"/>
<path d="M196.168 172.664L197 169.581C197.139 169.219 197.388 168.909 197.712 168.695C198.036 168.481 198.419 168.373 198.808 168.388C199.985 168.34 201.161 168.521 202.27 168.921L206.971 170.657L206.745 172.573C206.555 174.219 204.72 175.593 202.641 175.656C201.245 175.675 199.852 175.526 198.491 175.213L197.985 175.105C197.697 175.084 197.416 175.002 197.163 174.863C196.91 174.725 196.689 174.533 196.516 174.301C196.344 174.069 196.224 173.803 196.163 173.521C196.103 173.238 196.105 172.946 196.168 172.664Z" fill="#7F3E3B"/>
<path d="M122.121 130.113C125.132 126.614 129.661 117.529 121.145 114.058C114.862 111.49 101.528 112.801 93.8714 124.725C88.6372 126.533 87.0914 138.176 99.1779 140.626C111.264 143.076 122.121 130.113 122.121 130.113Z" fill="#263238"/>
<path d="M149.431 354.44L135.618 355.588L137.959 371.824L149.503 370.884L149.431 354.44Z" fill="#FFC3BD"/>
<path opacity="0.2" d="M149.431 354.449L135.609 355.597L136.929 364.692L149.476 363.652L149.431 354.449Z" fill="black"/>
<path d="M123.025 306.646C117.601 285.854 103.553 261.102 112.457 241.097L151.158 240.979C151.158 240.979 152.116 282.156 152.387 301.547C152.658 321.824 150.968 359.973 150.968 359.973L135.139 361.175C135.139 361.175 124.291 329.96 123.025 306.646Z" fill="#FEB139"/>
<path d="M134.352 361.799L151.456 360.542C151.602 360.53 151.739 360.465 151.841 360.361C151.944 360.257 152.006 360.119 152.016 359.973L152.378 353.645C152.384 353.557 152.371 353.469 152.339 353.387C152.307 353.305 152.257 353.231 152.193 353.171C152.129 353.11 152.052 353.064 151.969 353.037C151.885 353.01 151.796 353.001 151.709 353.012L132.725 355.534C132.639 355.543 132.556 355.572 132.482 355.617C132.408 355.663 132.345 355.724 132.297 355.796C132.25 355.869 132.219 355.951 132.207 356.037C132.195 356.123 132.202 356.211 132.228 356.293L133.729 361.374C133.77 361.504 133.855 361.616 133.968 361.693C134.081 361.77 134.216 361.807 134.352 361.799Z" fill="#263238"/>
<path opacity="0.2" d="M112.322 260.777C112.172 265.688 112.371 270.603 112.919 275.485C114.808 282.021 117.222 288.566 119.391 294.912C122.23 276.94 122.239 255.995 112.322 260.777Z" fill="black"/>
<path d="M98.301 355.453L84.4336 355.588L84.4155 371.951L96.0048 371.86L98.301 355.453Z" fill="#FFC3BD"/>
<path d="M83.3217 369.438C83.3353 369.347 83.3678 369.259 83.4172 369.182C83.4665 369.104 83.5316 369.037 83.6083 368.986C83.6849 368.935 83.7714 368.901 83.8621 368.885C83.9529 368.869 84.0459 368.873 84.1353 368.895C87.6157 370.278 94.2149 369.221 96.7099 368.742C96.9853 368.685 97.2694 368.685 97.5447 368.743C97.8199 368.8 98.0804 368.914 98.31 369.076C100.351 370.385 102.562 371.407 104.882 372.114C105.38 373.444 105.505 374.885 105.244 376.281H81.8662C82.5258 374.04 83.0124 371.753 83.3217 369.438Z" fill="#263238"/>
<path d="M136.432 369.438C136.445 369.347 136.478 369.259 136.527 369.182C136.576 369.104 136.641 369.037 136.718 368.986C136.795 368.935 136.881 368.901 136.972 368.885C137.063 368.869 137.156 368.873 137.245 368.895C140.726 370.278 147.325 369.221 149.82 368.742C150.095 368.685 150.379 368.685 150.655 368.743C150.93 368.8 151.19 368.914 151.42 369.076C154.078 370.956 161.165 372.114 161.165 372.114C161.663 373.444 161.785 374.886 161.518 376.281H134.976C135.636 374.04 136.122 371.753 136.432 369.438Z" fill="#263238"/>
<path opacity="0.2" d="M98.301 355.462L84.4246 355.588L84.4155 364.755L97.0173 364.647L98.301 355.462Z" fill="black"/>
<path d="M82.481 299.92C80.6007 278.92 74.7066 250.634 81.3962 240.979H126.687C126.687 240.979 117.457 282.853 113.669 302.234C109.737 322.384 98.4275 361.076 98.4275 361.076L83.4302 361.121C83.4302 361.121 77.744 323.894 82.481 299.92Z" fill="#FEB139"/>
<path opacity="0.2" d="M85.2019 356.827C85.1044 356.826 85.0099 356.793 84.932 356.735C84.854 356.676 84.7966 356.595 84.7679 356.502C83.6922 352.886 83.8639 311.347 86.5759 299.974C86.5759 298.474 86.2595 295.527 85.8979 291.793C84.6594 279.137 82.3633 255.633 85.7895 242.299C85.8194 242.179 85.8958 242.076 86.0017 242.013C86.1077 241.949 86.2346 241.93 86.3545 241.96C86.4743 241.99 86.5774 242.067 86.641 242.172C86.7045 242.278 86.7234 242.405 86.6935 242.525C83.3035 255.715 85.5906 279.128 86.82 291.712C87.1907 295.509 87.489 298.501 87.5071 300.02C87.5115 300.059 87.5115 300.098 87.5071 300.137C84.9035 310.895 84.6504 352.75 85.6991 356.248C85.733 356.362 85.7207 356.485 85.6649 356.59C85.609 356.695 85.5141 356.773 85.4007 356.809C85.3376 356.834 85.2685 356.84 85.2019 356.827Z" fill="white"/>
<path d="M82.3906 361.681H99.3767C99.5125 361.685 99.6451 361.64 99.7499 361.553C99.8546 361.467 99.9244 361.345 99.9463 361.211L101.067 355.181C101.083 355.09 101.079 354.996 101.054 354.907C101.03 354.818 100.986 354.735 100.925 354.665C100.864 354.595 100.789 354.539 100.704 354.502C100.619 354.464 100.527 354.446 100.434 354.449L81.9386 355.272C81.8605 355.274 81.7837 355.292 81.713 355.325C81.6423 355.358 81.5791 355.405 81.5274 355.464C81.4756 355.522 81.4365 355.591 81.4124 355.665C81.3883 355.74 81.3797 355.818 81.3871 355.896L81.7668 361.103C81.7803 361.259 81.8516 361.405 81.967 361.512C82.0823 361.619 82.2333 361.68 82.3906 361.681Z" fill="#263238"/>
<path d="M142.073 167.837C142.977 171.453 143.808 175.069 144.613 178.685C145.417 182.301 146.177 185.917 146.882 189.533L147.967 194.957L148.979 200.381C149.675 203.997 150.29 207.667 150.923 211.319L149.449 208.019C149.646 208.696 150.071 209.284 150.651 209.683C151.809 210.465 153.113 211.003 154.484 211.265C156.313 211.687 158.178 211.932 160.053 211.997C161.057 212.051 162.087 212.087 163.127 212.069C163.642 212.069 164.166 212.069 164.691 212.069C165.215 212.069 165.784 212.069 166.146 212.069L167.43 212.16C168.51 212.229 169.538 212.648 170.36 213.352C171.181 214.057 171.751 215.01 171.984 216.067C172.216 217.124 172.099 218.228 171.649 219.213C171.2 220.197 170.442 221.009 169.491 221.525C168.768 221.923 168.252 222.221 167.638 222.538C167.023 222.854 166.453 223.125 165.83 223.442C164.618 223.966 163.38 224.463 162.096 224.879C160.793 225.306 159.469 225.662 158.128 225.946C156.715 226.227 155.287 226.426 153.852 226.542C152.301 226.653 150.743 226.629 149.196 226.47C147.477 226.326 145.782 225.967 144.152 225.403C142.323 224.794 140.586 223.936 138.99 222.854C137.307 221.688 135.808 220.278 134.542 218.669C133.996 217.99 133.591 217.209 133.349 216.372L133.069 215.369C132.074 211.807 131.053 208.254 130.113 204.675L128.675 199.323L127.31 193.953C126.406 190.337 125.502 186.775 124.68 183.177C123.857 179.58 123.034 175.945 122.32 172.329C121.808 169.742 122.327 167.057 123.764 164.846C125.202 162.634 127.446 161.072 130.019 160.49C132.591 159.908 135.29 160.353 137.539 161.73C139.789 163.107 141.412 165.308 142.063 167.864L142.073 167.837Z" fill="#FFC3BD"/>
<path d="M165.513 212.964L165.703 218.804C168.062 224.472 174.824 220.169 174.824 220.169L178.91 219.419C179.622 219.238 180.246 218.811 180.673 218.214C181.1 217.616 181.302 216.887 181.243 216.155L181.134 212.069C181.162 211.226 180.858 210.405 180.289 209.782C179.72 209.159 178.93 208.783 178.088 208.734L174.472 208.806C173.417 208.824 172.382 209.104 171.462 209.62L165.513 212.964Z" fill="#FFC3BD"/>
<path d="M135.148 157.766C143.465 162.141 148.898 177.582 148.898 177.582C147.144 184.814 140.075 198.003 133.53 197.922C133.53 197.922 123.92 185.528 122.881 176.56C121.615 165.721 118.333 148.925 135.148 157.766Z" fill="#263238"/>
<path d="M127.464 155.199C114.629 153.978 101.698 154.185 88.9082 155.813C81.5135 156.853 76.2522 161.454 77.1562 176.605C78.9642 207.341 76.1618 231.297 80.0671 242.344C80.0671 242.344 136.947 258.616 153.165 243.022C157.106 206.04 143.835 175.34 137.797 162.566C136.851 160.555 135.404 158.821 133.594 157.531C131.785 156.24 129.673 155.437 127.464 155.199Z" fill="#263238"/>
<path d="M123.188 158.562C121.714 157.115 120.169 157.956 119.454 155.777C119.14 154.067 119.427 152.3 120.268 150.778L102.721 141.304C103.065 147.759 103.327 152.857 100.461 155.425C99.6298 160.234 108.597 165.034 120.539 165.107C128.142 165.152 125.312 160.641 123.188 158.562Z" fill="#FFC3BD"/>
<path opacity="0.2" d="M120.006 151.32L106.157 147.858C109.655 153.364 115.956 156.374 119.346 155.045C119.249 153.768 119.476 152.487 120.006 151.32Z" fill="black"/>
<path d="M114.275 119.735C105.108 117.701 97.1889 125.312 98.9608 133.611C100.733 141.91 102.134 147.515 107.874 150.335C119.283 155.958 124.851 150.534 125.782 141.865C126.623 134.054 123.577 121.787 114.275 119.735Z" fill="#FFC3BD"/>
<path opacity="0.2" d="M112.476 134.47C111.398 134.2 110.258 134.366 109.302 134.931C110.38 134.988 111.459 134.831 112.476 134.47Z" fill="black"/>
<path opacity="0.2" d="M112.539 135.238C112.032 135.215 111.527 135.303 111.058 135.496C110.589 135.69 110.169 135.985 109.827 136.359C110.802 136.187 111.727 135.805 112.539 135.238Z" fill="black"/>
<path d="M100.118 140.626C105.244 141.774 107.35 139.207 107.35 136.332C107.35 133.277 104.466 128.115 101.302 127.166C102.432 120.386 121.118 129.878 119.337 120.485C119.337 120.485 118.831 118.876 114.003 117.972C109.176 117.068 96.276 119.979 97.18 129.625C98.084 139.27 100.118 140.626 100.118 140.626Z" fill="#263238"/>
<path d="M93.5911 125.204C94.8458 122.686 95.1999 119.815 94.5945 117.068C94.5945 117.068 100.217 120.783 93.5911 125.204Z" fill="#263238"/>
<path d="M117.167 143.203C117.551 143.174 117.932 143.116 118.306 143.031C118.336 143.024 118.363 143.012 118.388 142.995C118.412 142.978 118.433 142.956 118.449 142.931C118.465 142.906 118.476 142.878 118.481 142.848C118.486 142.819 118.485 142.789 118.478 142.76C118.473 142.73 118.462 142.702 118.445 142.676C118.428 142.651 118.406 142.63 118.381 142.614C118.355 142.598 118.326 142.587 118.296 142.583C118.267 142.578 118.236 142.58 118.207 142.588C117.268 142.817 116.289 142.823 115.347 142.607C114.405 142.39 113.527 141.957 112.783 141.34C112.762 141.319 112.737 141.301 112.709 141.289C112.681 141.277 112.651 141.271 112.62 141.271C112.59 141.271 112.56 141.277 112.532 141.289C112.504 141.301 112.479 141.319 112.458 141.34C112.416 141.384 112.392 141.442 112.392 141.503C112.392 141.564 112.416 141.622 112.458 141.666C113.102 142.221 113.85 142.643 114.658 142.907C115.467 143.171 116.32 143.271 117.167 143.203Z" fill="#263238"/>
<path d="M96.8725 141.024C97.4591 141.819 98.1972 142.491 99.0443 142.999C99.8914 143.508 100.831 143.845 101.808 143.989C104.439 144.351 105.424 141.919 104.412 139.623C103.508 137.553 101.049 134.877 98.5539 135.564C96.0589 136.251 95.4442 139.044 96.8725 141.024Z" fill="#FFC3BD"/>
<path d="M113.967 134.56C114.076 135.293 114.546 135.835 115.025 135.763C115.504 135.69 115.811 135.03 115.703 134.298C115.594 133.566 115.133 133.033 114.654 133.105C114.175 133.177 113.904 133.792 113.967 134.56Z" fill="#263238"/>
<path d="M122.582 133.403C122.691 134.145 123.161 134.678 123.64 134.606C124.119 134.533 124.427 133.882 124.318 133.15C124.21 132.418 123.749 131.876 123.269 131.948C122.79 132.02 122.483 132.671 122.582 133.403Z" fill="#263238"/>
<path d="M119.328 134.371L119.744 140.572C119.744 140.572 121.778 140.925 122.881 139.749C122.18 137.68 120.957 135.827 119.328 134.371Z" fill="#ED847E"/>
<path d="M111.129 132.888C111.055 132.908 110.977 132.908 110.903 132.887C110.829 132.867 110.762 132.826 110.709 132.771C110.656 132.715 110.62 132.646 110.603 132.571C110.586 132.496 110.59 132.418 110.613 132.346C110.785 131.674 111.114 131.052 111.573 130.532C112.032 130.012 112.608 129.608 113.253 129.353C113.362 129.319 113.48 129.329 113.582 129.382C113.684 129.434 113.76 129.525 113.796 129.634C113.83 129.744 113.82 129.863 113.768 129.966C113.715 130.069 113.625 130.148 113.515 130.185C113.006 130.393 112.553 130.718 112.193 131.134C111.833 131.551 111.577 132.046 111.445 132.581C111.425 132.655 111.385 132.723 111.329 132.777C111.273 132.832 111.204 132.87 111.129 132.888Z" fill="#263238"/>
<path d="M125.412 130.113C125.34 130.119 125.269 130.107 125.203 130.077C125.138 130.047 125.082 130 125.041 129.941C124.732 129.492 124.319 129.124 123.838 128.867C123.356 128.611 122.82 128.474 122.275 128.467C122.155 128.467 122.04 128.42 121.955 128.335C121.871 128.25 121.823 128.135 121.823 128.015C121.823 127.895 121.871 127.781 121.955 127.696C122.04 127.611 122.155 127.563 122.275 127.563C122.964 127.558 123.643 127.72 124.256 128.034C124.868 128.349 125.395 128.808 125.792 129.371C125.825 129.418 125.849 129.47 125.862 129.526C125.875 129.581 125.877 129.639 125.867 129.695C125.858 129.751 125.838 129.805 125.808 129.853C125.778 129.902 125.738 129.944 125.692 129.977C125.657 130.018 125.614 130.051 125.566 130.074C125.518 130.097 125.465 130.111 125.412 130.113Z" fill="#263238"/>
<path d="M178.088 189.234C176.195 189.368 174.37 189.991 172.79 191.042L171.154 170.25C171.02 168.633 170.252 167.134 169.018 166.081C167.783 165.027 166.182 164.505 164.564 164.627L103.879 169.41C102.262 169.546 100.765 170.314 99.7118 171.548C98.6589 172.782 98.1356 174.382 98.2557 176L103.047 236.685C103.176 238.304 103.943 239.806 105.178 240.86C106.414 241.915 108.018 242.435 109.637 242.308L170.313 237.517C171.932 237.385 173.434 236.618 174.489 235.384C175.544 234.149 176.068 232.546 175.945 230.927L174.3 210.18C176.023 210.987 177.927 211.33 179.824 211.174C182.547 210.716 185.001 209.254 186.7 207.076C188.399 204.898 189.22 202.163 189.002 199.41C188.785 196.656 187.543 194.084 185.523 192.201C183.503 190.317 180.85 189.259 178.088 189.234Z" fill="#FEB139"/>
<path d="M90.0926 180.936L89.1886 182.599L88.149 184.461C87.48 185.727 86.793 186.992 86.1692 188.276C84.9157 190.777 83.7932 193.342 82.8063 195.96C82.3272 197.226 81.9023 198.482 81.5859 199.721C81.225 200.906 80.9411 202.114 80.7362 203.337C80.3568 205.303 80.2927 207.317 80.5463 209.303L78.4671 205.687C79.3328 206.874 80.3649 207.931 81.5317 208.824C83.0654 210.048 84.6747 211.174 86.35 212.196C88.0947 213.317 89.966 214.393 91.8463 215.468L94.721 217.068C95.625 217.611 96.7098 218.153 97.5686 218.678L98.0026 218.94C98.9622 219.521 99.7041 220.402 100.114 221.447C100.524 222.492 100.579 223.642 100.27 224.721C99.962 225.8 99.3076 226.748 98.4078 227.418C97.5079 228.089 96.4126 228.445 95.2906 228.432C93.9165 228.432 92.7413 228.341 91.4757 228.242C90.2101 228.142 89.0078 227.989 87.7783 227.79C85.2796 227.415 82.8068 226.883 80.3746 226.199C77.8004 225.477 75.2906 224.543 72.8714 223.405C70.0115 222.088 67.3831 220.318 65.0879 218.162C64.262 217.375 63.6413 216.397 63.2799 215.315L63.0268 214.537C61.6113 210.244 61.0823 205.707 61.4719 201.203C61.779 197.28 62.5311 193.404 63.7138 189.65C64.8152 186.123 66.1811 182.684 67.7999 179.363C68.5864 177.735 69.391 176.126 70.295 174.562C70.7379 173.776 71.199 172.989 71.669 172.212L72.4103 171.037L72.799 170.44L73.2691 169.744C74.7214 167.546 76.9736 166.002 79.5469 165.439C82.1202 164.876 84.8115 165.339 87.0486 166.73C89.2858 168.121 90.8923 170.329 91.5265 172.886C92.1608 175.442 91.7729 178.145 90.4451 180.42L90.0926 180.936Z" fill="#FFC3BD"/>
<path d="M83.0323 157.766C68.044 165.776 62.4573 183.666 62.4573 183.666C65.4224 189.316 83.3035 195.418 90.0293 193.754C90.0293 193.754 96.4748 182.002 97.8037 171.498C99.0331 161.762 91.8102 153.074 83.0323 157.766Z" fill="#263238"/>
<path d="M93.5188 219.672L93.8262 225.512C96.3031 231.135 102.975 226.696 102.975 226.696L107.052 225.864C107.759 225.669 108.374 225.23 108.788 224.624C109.202 224.018 109.387 223.285 109.312 222.556L109.131 218.479C109.153 217.63 108.842 216.806 108.264 216.184C107.686 215.562 106.887 215.192 106.039 215.152L102.423 215.296C101.366 215.345 100.338 215.655 99.431 216.2L93.5188 219.672Z" fill="#FFC3BD"/>
</svg>
